<?xml version="1.0" encoding="UTF-8"?>
<!DOCTYPE svg PUBLIC "-//W3C//DTD SVG 1.1//EN" "http://www.w3.org/Graphics/SVG/1.1/DTD/svg11.dtd">
<!-- Creator: CorelDRAW -->
<svg xmlns="http://www.w3.org/2000/svg" xml:space="preserve" width="42px" height="42px" style="shape-rendering:geometricPrecision; text-rendering:geometricPrecision; image-rendering:optimizeQuality; fill-rule:evenodd; clip-rule:evenodd"
viewBox="0 0 9.4119 9.5164"
 xmlns:xlink="http://www.w3.org/1999/xlink">
 <defs>
  <style type="text/css">
   <![CDATA[
    .str0 {stroke:#FEFEFE;stroke-width:0.282747}
    .fil0 {fill:none}
    .fil2 {fill:#FEFEFE}
    .fil1 {fill:#FEFEFE;fill-rule:nonzero}
   ]]>
  </style>
 </defs>
 <g id="Capa_x0020_1">
  <metadata id="CorelCorpID_0Corel-Layer"/>
  <rect class="fil0" width="9.41181" height="9.5164"/>
  <g id="_694085888">
   <g>
    <path id="_694086584" class="fil1" d="M6.8303 8.3659l1.6254 -1.32554 0.125072 0.217539 -1.6254 1.32554 -0.173176 -0.10877 0.0481045 -0.10877zm0 0l0.125072 0.217539 -0.00481045 0.00374146 -0.00481045 0.00320696 -0.00507769 0.00320696 -0.00481045 0.00267247 -0.00534494 0.00240522 -0.00507769 0.00213798 -0.00507769 0.00160348 -0.00534494 0.00133623 -0.00534494 0.00133623 -0.00534494 0.000801741 -0.00534494 0.000534494 -0.00534494 0 -0.00534494 0 -0.00534494 -0.000534494 -0.00507769 -0.000534494 -0.00534494 -0.00106899 -0.00534494 -0.00133623 -0.00507769 -0.00160348 -0.00507769 -0.00187073 -0.00507769 -0.00213798 -0.00481045 -0.00267247 -0.00481045 -0.00267247 -0.00481045 -0.00293972 -0.0045432 -0.00347421 -0.0045432 -0.00347421 -0.00427595 -0.0040087 -0.00427595 -0.0040087 -0.0040087 -0.0045432 -0.00374146 -0.0045432 -0.00374146 -0.00507769 -0.00374146 -0.00507769 -0.00320696 -0.00561219 -0.00320696 -0.00561219 -0.00267247 -0.00587943 -0.00267247 -0.00587943 -0.00213798 -0.00587943 -0.00213798 -0.00614668 -0.00160348 -0.00614668 -0.00160348 -0.00641393 -0.00106899 -0.00614668 -0.000801741 -0.00641393 -0.000801741 -0.00614668 -0.000534494 -0.00641393 0 -0.00641393 0 -0.00641393 0.000534494 -0.00614668 0.000534494 -0.00641393 0.000801741 -0.00614668 0.00106899 -0.00614668 0.00133623 -0.00614668 0.00160348 -0.00614668 0.00187073 -0.00587943 0.00213798 -0.00587943 0.00240522 -0.00587943 0.00240522 -0.00561219 0.00293972 -0.00534494 0.00293972 -0.00534494 0.00320696 -0.00534494 0.00347421 -0.00481045 0.00374146 -0.00481045 0.0040087 -0.00481045 0.0040087 -0.00427595 0.0045432 -0.00427595 0.0045432 -0.0040087zm0.173176 -3.24438l0 3.35315 -0.22128 0 0 -3.35315 0.0553201 -0.114114 0.16596 0.114114zm0 0l-0.22128 0 0.000267247 -0.00668117 0.000267247 -0.00668117 0.000801741 -0.00668117 0.000801741 -0.00641393 0.00133623 -0.00641393 0.00160348 -0.00641393 0.00160348 -0.00587943 0.00213798 -0.00614668 0.00213798 -0.00587943 0.00240522 -0.00561219 0.00267247 -0.00561219 0.00293972 -0.00534494 0.00293972 -0.00507769 0.00347421 -0.00481045 0.00347421 -0.00481045 0.00347421 -0.00481045 0.0040087 -0.00427595 0.0040087 -0.0040087 0.00427595 -0.0040087 0.00427595 -0.00374146 0.0045432 -0.00347421 0.0045432 -0.00293972 0.00481045 -0.00293972 0.00481045 -0.00267247 0.00507769 -0.00240522 0.00507769 -0.00213798 0.00534494 -0.00160348 0.00534494 -0.00160348 0.00534494 -0.00106899 0.00561219 -0.000801741 0.00561219 -0.000534494 0.00561219 -0.000267247 0.00561219 0.000267247 0.00561219 0.000534494 0.00561219 0.000801741 0.00534494 0.00106899 0.00534494 0.00160348 0.00534494 0.00160348 0.00507769 0.00213798 0.00507769 0.00240522 0.00481045 0.00267247 0.00481045 0.00293972 0.0045432 0.00293972 0.0045432 0.00347421 0.00427595 0.00374146 0.00427595 0.0040087 0.0040087 0.0040087 0.00374146 0.00427595 0.00374146 0.00481045 0.00347421 0.00481045 0.00347421 0.00481045 0.00293972 0.00507769 0.00293972 0.00534494 0.00267247 0.00561219 0.00240522 0.00561219 0.00213798 0.00587943 0.00213798 0.00614668 0.00160348 0.00587943 0.00160348 0.00641393 0.00133623 0.00641393 0.000801741 0.00641393 0.000801741 0.00668117 0.000267247 0.00668117 0.000267247 0.00668117zm1.57008 -1.00378l-1.6254 1.11789 -0.11064 -0.228229 1.6254 -1.11789 0.16596 0.114114 -0.0553201 0.114114zm0 0l-0.11064 -0.228229 0.00507769 -0.00320696 0.00507769 -0.00293972 0.00507769 -0.00267247 0.00507769 -0.00213798 0.00534494 -0.00187073 0.00534494 -0.00160348 0.00534494 -0.00133623 0.00534494 -0.000801741 0.00534494 -0.000801741 0.00534494 -0.000267247 0.00534494 0 0.00534494 0.000267247 0.00534494 0.000534494 0.00534494 0.00106899 0.00507769 0.00106899 0.00507769 0.00160348 0.00534494 0.00187073 0.00481045 0.00187073 0.00507769 0.00240522 0.00481045 0.00267247 0.00481045 0.00293972 0.0045432 0.00320696 0.0045432 0.00347421 0.00427595 0.00374146 0.00427595 0.0040087 0.0040087 0.0040087 0.0040087 0.0045432 0.00374146 0.00481045 0.00347421 0.00507769 0.00347421 0.00534494 0.00320696 0.00534494 0.00293972 0.00587943 0.00267247 0.00587943 0.00240522 0.00614668 0.00213798 0.00614668 0.00187073 0.00614668 0.00160348 0.00614668 0.00133623 0.00641393 0.00106899 0.00641393 0.000801741 0.00614668 0.000534494 0.00641393 0.000267247 0.00641393 0 0.00641393 -0.000267247 0.00641393 -0.000534494 0.00614668 -0.000801741 0.00641393 -0.000801741 0.00614668 -0.00133623 0.00614668 -0.00160348 0.00614668 -0.00160348 0.00587943 -0.00213798 0.00587943 -0.00213798 0.00587943 -0.00240522 0.00561219 -0.00267247 0.00561219 -0.00293972 0.00534494 -0.00320696 0.00507769 -0.00320696 0.00507769 -0.00374146 0.00481045 -0.00374146 0.00481045 -0.0040087 0.0045432 -0.00427595 0.00427595 -0.00427595 0.0040087 -0.00481045 0.00374146 -0.00481045 0.00347421zm-0.16596 3.03138l0 -3.1455 0.22128 0 0 3.1455 -0.0481045 0.10877 -0.173176 -0.10877zm0 0l0.22128 0 -0.000267247 0.00668117 -0.000267247 0.00668117 -0.000801741 0.00668117 -0.000801741 0.00641393 -0.00133623 0.00641393 -0.00160348 0.00641393 -0.00160348 0.00587943 -0.00213798 0.00614668 -0.00213798 0.00587943 -0.00240522 0.00561219 -0.00267247 0.00561219 -0.00293972 0.00534494 -0.00293972 0.00507769 -0.00347421 0.00481045 -0.00347421 0.00481045 -0.00374146 0.0045432 -0.00374146 0.0045432 -0.0040087 0.0040087 -0.00427595 0.0040087 -0.00427595 0.00374146 -0.0045432 0.00347421 -0.0045432 0.00293972 -0.00481045 0.00293972 -0.00481045 0.00267247 -0.00507769 0.00240522 -0.00507769 0.00213798 -0.00534494 0.00160348 -0.00534494 0.00160348 -0.00534494 0.00106899 -0.00561219 0.000801741 -0.00561219 0.000534494 -0.00561219 0.000267247 -0.00561219 -0.000267247 -0.00561219 -0.000534494 -0.00561219 -0.000801741 -0.00534494 -0.00106899 -0.00534494 -0.00160348 -0.00534494 -0.00160348 -0.00507769 -0.00213798 -0.00507769 -0.00240522 -0.00481045 -0.00267247 -0.00481045 -0.00293972 -0.0045432 -0.00293972 -0.0045432 -0.00347421 -0.00427595 -0.00374146 -0.00427595 -0.0040087 -0.0040087 -0.0040087 -0.0040087 -0.0045432 -0.00347421 -0.0045432 -0.00347421 -0.00481045 -0.00347421 -0.00481045 -0.00293972 -0.00507769 -0.00293972 -0.00534494 -0.00267247 -0.00561219 -0.00240522 -0.00561219 -0.00213798 -0.00587943 -0.00213798 -0.00614668 -0.00160348 -0.00587943 -0.00160348 -0.00641393 -0.00133623 -0.00641393 -0.000801741 -0.00641393 -0.000801741 -0.00668117 -0.000267247 -0.00668117 -0.000267247 -0.00668117z"/>
   </g>
   <g>
    <path class="fil1" d="M6.8939 5.25301l-3.25079 0.0529149 -0.00213798 -0.263506 3.25079 -0.0529149 0.110373 0.131218 -0.108235 0.132287zm0 0l-0.00213798 -0.263506 0.00561219 0 0.00561219 0.000534494 0.00534494 0.000801741 0.00534494 0.00106899 0.00534494 0.00133623 0.00507769 0.00160348 0.00534494 0.00213798 0.00481045 0.00213798 0.00481045 0.00267247 0.00481045 0.00293972 0.0045432 0.00293972 0.0045432 0.00347421 0.00427595 0.00347421 0.00427595 0.0040087 0.0040087 0.0040087 0.00374146 0.00427595 0.00374146 0.0045432 0.00347421 0.0045432 0.00320696 0.00507769 0.00320696 0.00507769 0.00293972 0.00534494 0.00267247 0.00534494 0.00240522 0.00561219 0.00213798 0.00587943 0.00213798 0.00587943 0.00160348 0.00614668 0.00160348 0.00614668 0.00133623 0.00641393 0.00106899 0.00641393 0.000801741 0.00668117 0.000267247 0.00668117 0.000267247 0.00668117 0 0.00668117 -0.000534494 0.00668117 -0.000534494 0.00668117 -0.00106899 0.00641393 -0.00106899 0.00641393 -0.00133623 0.00641393 -0.00187073 0.00614668 -0.00187073 0.00587943 -0.00213798 0.00587943 -0.00240522 0.00587943 -0.00240522 0.00561219 -0.00293972 0.00534494 -0.00293972 0.00507769 -0.00320696 0.00507769 -0.00347421 0.00481045 -0.00347421 0.00481045 -0.00374146 0.00427595 -0.0040087 0.00427595 -0.00427595 0.0040087 -0.0040087 0.00374146 -0.0045432 0.00347421 -0.0045432 0.00320696 -0.0045432 0.00320696 -0.00507769 0.00267247 -0.00481045 0.00240522 -0.00507769 0.00213798 -0.00507769 0.00187073 -0.00534494 0.00160348 -0.00534494 0.00106899 -0.00534494 0.00106899 -0.00561219 0.000534494 -0.00561219 0.000267247zm-0.110373 3.2222l0 -3.35342 0.218608 -0.00106899 0 3.35342 -0.108235 0.132287 -0.110373 -0.131218zm0 0l0.218608 -0.00106899 -0.000267247 0.00668117 -0.000267247 0.00668117 -0.000801741 0.00668117 -0.000801741 0.00641393 -0.00133623 0.00641393 -0.00133623 0.00641393 -0.00187073 0.00614668 -0.00187073 0.00587943 -0.00213798 0.00587943 -0.00267247 0.00561219 -0.00240522 0.00561219 -0.00293972 0.00534494 -0.00320696 0.00507769 -0.00320696 0.00507769 -0.00347421 0.00481045 -0.00347421 0.0045432 -0.00374146 0.0045432 -0.0040087 0.0040087 -0.00427595 0.0040087 -0.00427595 0.00374146 -0.00427595 0.00347421 -0.0045432 0.00320696 -0.00481045 0.00293972 -0.00481045 0.00240522 -0.00507769 0.00240522 -0.00507769 0.00213798 -0.00507769 0.00187073 -0.00534494 0.00160348 -0.00534494 0.00106899 -0.00534494 0.000801741 -0.00561219 0.000534494 -0.00561219 0.000267247 -0.00561219 -0.000267247 -0.00561219 -0.000267247 -0.00534494 -0.000801741 -0.00534494 -0.00133623 -0.00534494 -0.00133623 -0.00507769 -0.00187073 -0.00507769 -0.00187073 -0.00507769 -0.00240522 -0.00481045 -0.00267247 -0.00481045 -0.00293972 -0.0045432 -0.00293972 -0.00427595 -0.00347421 -0.00427595 -0.00374146 -0.00427595 -0.00374146 -0.0040087 -0.00427595 -0.00374146 -0.00427595 -0.00347421 -0.0045432 -0.00347421 -0.00481045 -0.00320696 -0.00507769 -0.00320696 -0.00507769 -0.00293972 -0.00534494 -0.00240522 -0.00534494 -0.00267247 -0.00587943 -0.00213798 -0.00561219 -0.00187073 -0.00614668 -0.00187073 -0.00614668 -0.00133623 -0.00614668 -0.00133623 -0.00641393 -0.000801741 -0.00641393 -0.000801741 -0.00668117 -0.000267247 -0.00668117 -0.000267247 -0.00668117zm-3.14256 -0.0793724l3.25079 -0.0529149 0.00213798 0.263506 -3.25079 0.0529149 -0.110373 -0.131218 0.108235 -0.132287zm0 0l0.00213798 0.263506 -0.00561219 0 -0.00561219 -0.000534494 -0.00534494 -0.000801741 -0.00534494 -0.00106899 -0.00534494 -0.00133623 -0.00507769 -0.00160348 -0.00534494 -0.00213798 -0.00481045 -0.00213798 -0.00481045 -0.00267247 -0.00481045 -0.00293972 -0.0045432 -0.00293972 -0.0045432 -0.00347421 -0.00427595 -0.00347421 -0.00427595 -0.0040087 -0.0040087 -0.0040087 -0.00374146 -0.00427595 -0.00374146 -0.0045432 -0.00347421 -0.0045432 -0.00320696 -0.00507769 -0.00320696 -0.00507769 -0.00293972 -0.00534494 -0.00267247 -0.00534494 -0.00240522 -0.00561219 -0.00213798 -0.00587943 -0.00213798 -0.00587943 -0.00160348 -0.00614668 -0.00160348 -0.00614668 -0.00133623 -0.00641393 -0.00106899 -0.00641393 -0.000801741 -0.00668117 -0.000267247 -0.00668117 -0.000267247 -0.00668117 0 -0.00668117 0.000534494 -0.00668117 0.000534494 -0.00668117 0.00106899 -0.00641393 0.00106899 -0.00641393 0.00133623 -0.00641393 0.00187073 -0.00614668 0.00187073 -0.00587943 0.00213798 -0.00587943 0.00240522 -0.00587943 0.00240522 -0.00561219 0.00293972 -0.00534494 0.00293972 -0.00507769 0.00320696 -0.00507769 0.00347421 -0.00481045 0.00347421 -0.00481045 0.00374146 -0.00427595 0.0040087 -0.00427595 0.00427595 -0.0040087 0.0040087 -0.00374146 0.0045432 -0.00347421 0.0045432 -0.00320696 0.0045432 -0.00320696 0.00507769 -0.00267247 0.00481045 -0.00240522 0.00507769 -0.00213798 0.00507769 -0.00187073 0.00534494 -0.00160348 0.00534494 -0.00106899 0.00534494 -0.00106899 0.00561219 -0.000534494 0.00561219 -0.000267247zm0.110373 -3.2222l0 3.35342 -0.218608 0.00106899 0 -3.35342 0.108235 -0.132287 0.110373 0.131218zm0 0l-0.218608 0.00106899 0.000267247 -0.00668117 0.000267247 -0.00668117 0.000801741 -0.00668117 0.000801741 -0.00641393 0.00133623 -0.00641393 0.00133623 -0.00641393 0.00187073 -0.00614668 0.00187073 -0.00587943 0.00213798 -0.00587943 0.00267247 -0.00561219 0.00240522 -0.00561219 0.00293972 -0.00534494 0.00320696 -0.00507769 0.00320696 -0.00507769 0.00347421 -0.00481045 0.00347421 -0.0045432 0.00374146 -0.0045432 0.0040087 -0.0040087 0.00427595 -0.0040087 0.00427595 -0.00374146 0.00427595 -0.00347421 0.0045432 -0.00320696 0.00481045 -0.00293972 0.00481045 -0.00240522 0.00507769 -0.00240522 0.00507769 -0.00213798 0.00507769 -0.00187073 0.00534494 -0.00160348 0.00534494 -0.00106899 0.00534494 -0.000801741 0.00561219 -0.000534494 0.00561219 -0.000267247 0.00561219 0.000267247 0.00561219 0.000267247 0.00534494 0.000801741 0.00534494 0.00133623 0.00534494 0.00133623 0.00507769 0.00187073 0.00507769 0.00187073 0.00507769 0.00240522 0.00481045 0.00267247 0.00481045 0.00293972 0.0045432 0.00293972 0.00427595 0.00347421 0.00427595 0.00374146 0.00427595 0.00374146 0.0040087 0.00427595 0.00374146 0.00427595 0.00347421 0.0045432 0.00347421 0.00481045 0.00320696 0.00507769 0.00320696 0.00507769 0.00293972 0.00534494 0.00240522 0.00534494 0.00267247 0.00587943 0.00213798 0.00561219 0.00187073 0.00614668 0.00187073 0.00614668 0.00133623 0.00614668 0.00133623 0.00641393 0.000801741 0.00641393 0.000801741 0.00668117 0.000267247 0.00668117 0.000267247 0.00668117z"/>
   </g>
   <g>
    <path class="fil1" d="M5.32196 4.17119l-1.62566 1.11736 -0.108502 -0.228763 1.62566 -1.11736 0.0526477 -0.0173711 0.0558546 0.246134zm0 0l-0.108502 -0.228763 0.00507769 -0.00320696 0.00481045 -0.00293972 0.00507769 -0.00240522 0.00534494 -0.00213798 0.00507769 -0.00187073 0.00534494 -0.00160348 0.00507769 -0.00133623 0.00534494 -0.000801741 0.00534494 -0.000534494 0.00534494 -0.000267247 0.00534494 0 0.00507769 0.000267247 0.00534494 0.000534494 0.00534494 0.00106899 0.00507769 0.00133623 0.00507769 0.00133623 0.00507769 0.00187073 0.00481045 0.00213798 0.00507769 0.00240522 0.00481045 0.00267247 0.0045432 0.00293972 0.0045432 0.00320696 0.0045432 0.00347421 0.00427595 0.00374146 0.00427595 0.0040087 0.0040087 0.00427595 0.00374146 0.0045432 0.00374146 0.00481045 0.00347421 0.00507769 0.00320696 0.00534494 0.00320696 0.00534494 0.00293972 0.00587943 0.00267247 0.00587943 0.00240522 0.00614668 0.00213798 0.00614668 0.00187073 0.00614668 0.00133623 0.00641393 0.00133623 0.00614668 0.00106899 0.00641393 0.000801741 0.00641393 0.000534494 0.00641393 0.000267247 0.00614668 0 0.00641393 -0.000534494 0.00641393 -0.000267247 0.00641393 -0.000801741 0.00614668 -0.00106899 0.00614668 -0.00133623 0.00614668 -0.00160348 0.00614668 -0.00160348 0.00587943 -0.00213798 0.00587943 -0.00213798 0.00587943 -0.00240522 0.00561219 -0.00267247 0.00534494 -0.00293972 0.00534494 -0.00320696 0.00534494 -0.00320696 0.00481045 -0.00374146 0.00481045 -0.00374146 0.00481045 -0.0040087 0.00427595 -0.0040087 0.00427595 -0.0045432 0.0040087 -0.0045432 0.00374146 -0.00481045 0.00347421zm3.19788 -0.0358111l-3.25052 0.0531821 -0.00320696 -0.263506 3.25052 -0.0531821 0.0558546 0.246134 -0.0526477 0.0173711zm0 0l-0.00320696 -0.263506 0.00561219 0 0.00561219 0.000534494 0.00534494 0.000801741 0.00534494 0.00106899 0.00534494 0.00133623 0.00534494 0.00160348 0.00507769 0.00213798 0.00481045 0.00213798 0.00507769 0.00267247 0.0045432 0.00293972 0.00481045 0.00293972 0.00427595 0.00347421 0.0045432 0.00347421 0.0040087 0.0040087 0.0040087 0.0040087 0.0040087 0.00427595 0.00374146 0.0045432 0.00347421 0.0045432 0.00320696 0.00507769 0.00320696 0.00507769 0.00293972 0.00534494 0.00267247 0.00534494 0.00240522 0.00561219 0.00240522 0.00587943 0.00187073 0.00587943 0.00187073 0.00614668 0.00160348 0.00614668 0.00133623 0.00641393 0.000801741 0.00641393 0.000801741 0.00668117 0.000534494 0.00668117 0.000267247 0.00668117 0 0.00668117 -0.000534494 0.00668117 -0.000534494 0.00668117 -0.000801741 0.00641393 -0.00133623 0.00641393 -0.00133623 0.00641393 -0.00160348 0.00614668 -0.00187073 0.00587943 -0.00213798 0.00587943 -0.00240522 0.00587943 -0.00240522 0.00561219 -0.00293972 0.00534494 -0.00293972 0.00507769 -0.00320696 0.00507769 -0.00347421 0.00481045 -0.00347421 0.00481045 -0.00374146 0.00427595 -0.0040087 0.00427595 -0.0040087 0.0040087 -0.00427595 0.00374146 -0.00427595 0.00347421 -0.0045432 0.00320696 -0.00481045 0.00320696 -0.00481045 0.00267247 -0.00481045 0.00240522 -0.00507769 0.00213798 -0.00507769 0.00187073 -0.00534494 0.00160348 -0.00534494 0.00106899 -0.00534494 0.00106899 -0.00561219 0.000534494 -0.00561219 0.000267247zm-1.68125 0.87176l1.6254 -1.11789 0.108502 0.228763 -1.6254 1.11789 -0.0526477 0.0173711 -0.0558546 -0.246134zm0 0l0.108502 0.228763 -0.00507769 0.00320696 -0.00481045 0.00293972 -0.00507769 0.00240522 -0.00534494 0.00213798 -0.00507769 0.00187073 -0.00534494 0.00160348 -0.00507769 0.00133623 -0.00534494 0.000801741 -0.00534494 0.000534494 -0.00534494 0.000267247 -0.00507769 0 -0.00534494 -0.000267247 -0.00534494 -0.000534494 -0.00507769 -0.00106899 -0.00507769 -0.00133623 -0.00534494 -0.00133623 -0.00481045 -0.00187073 -0.00507769 -0.00213798 -0.00481045 -0.00240522 -0.00481045 -0.00267247 -0.0045432 -0.00293972 -0.0045432 -0.00320696 -0.0045432 -0.00347421 -0.00427595 -0.00374146 -0.00427595 -0.0040087 -0.0040087 -0.00427595 -0.00374146 -0.0045432 -0.00374146 -0.00481045 -0.00347421 -0.00507769 -0.00320696 -0.00534494 -0.00320696 -0.00534494 -0.00293972 -0.00587943 -0.00267247 -0.00587943 -0.00240522 -0.00614668 -0.00213798 -0.00614668 -0.00187073 -0.00614668 -0.00160348 -0.00641393 -0.00106899 -0.00614668 -0.00106899 -0.00641393 -0.000801741 -0.00641393 -0.000534494 -0.00641393 -0.000267247 -0.00614668 0 -0.00641393 0.000267247 -0.00641393 0.000534494 -0.00641393 0.000801741 -0.00614668 0.00106899 -0.00614668 0.00106899 -0.00614668 0.00160348 -0.00614668 0.00187073 -0.00587943 0.00187073 -0.00587943 0.00213798 -0.00587943 0.00240522 -0.00561219 0.00267247 -0.00534494 0.00293972 -0.00534494 0.00320696 -0.00534494 0.00320696 -0.00481045 0.00374146 -0.00481045 0.00374146 -0.00481045 0.0040087 -0.00427595 0.0040087 -0.00427595 0.0045432 -0.0040087 0.0045432 -0.00374146 0.00481045 -0.00347421zm-3.19814 0.0352766l3.25079 -0.0526477 0.00320696 0.263506 -3.25079 0.0526477 -0.0558546 -0.246134 0.0526477 -0.0173711zm0 0l0.00320696 0.263506 -0.00561219 0 -0.00561219 -0.000534494 -0.00534494 -0.000801741 -0.00534494 -0.00106899 -0.00534494 -0.00133623 -0.00534494 -0.00160348 -0.00507769 -0.00213798 -0.00481045 -0.00213798 -0.00507769 -0.00267247 -0.0045432 -0.00293972 -0.00481045 -0.00293972 -0.00427595 -0.00347421 -0.0045432 -0.00347421 -0.0040087 -0.0040087 -0.0040087 -0.0040087 -0.0040087 -0.00427595 -0.00374146 -0.0045432 -0.00347421 -0.0045432 -0.00320696 -0.00507769 -0.00320696 -0.00507769 -0.00293972 -0.00534494 -0.00267247 -0.00534494 -0.00240522 -0.00561219 -0.00240522 -0.00587943 -0.00187073 -0.00587943 -0.00187073 -0.00614668 -0.00160348 -0.00614668 -0.00133623 -0.00641393 -0.000801741 -0.00641393 -0.000801741 -0.00668117 -0.000534494 -0.00668117 -0.000267247 -0.00668117 0 -0.00668117 0.000534494 -0.00668117 0.000534494 -0.00668117 0.000801741 -0.00641393 0.00133623 -0.00641393 0.00133623 -0.00641393 0.00160348 -0.00614668 0.00187073 -0.00587943 0.00213798 -0.00587943 0.00240522 -0.00587943 0.00240522 -0.00561219 0.00293972 -0.00534494 0.00293972 -0.00507769 0.00320696 -0.00507769 0.00347421 -0.00481045 0.00347421 -0.00481045 0.00374146 -0.00427595 0.0040087 -0.00427595 0.0040087 -0.0040087 0.00427595 -0.00374146 0.00427595 -0.00347421 0.0045432 -0.00320696 0.00481045 -0.00320696 0.00481045 -0.00267247 0.00481045 -0.00240522 0.00507769 -0.00213798 0.00507769 -0.00187073 0.00534494 -0.00160348 0.00534494 -0.00106899 0.00534494 -0.00106899 0.00561219 -0.000534494 0.00561219 -0.000267247z"/>
   </g>
   <g>
    <polygon class="fil2" points="7.8926,5.11618 8.12458,4.98843 8.12458,5.67766 7.8926,5.80541 "/>
    <path id="1" class="fil1" d="M8.12484 5.04055l-0.23197 0.127744 -0.000534494 -0.104226 0.23197 -0.127744 0.0152331 0.044363 -0.0146986 0.0598633zm0 0l-0.000534494 -0.104226 0.000801741 -0.000267247 0.000801741 -0.000267247 0.000534494 0 0.000801741 0 0.000801741 0 0.000534494 0.000534494 0.000801741 0.000267247 0.000801741 0.000534494 0.000534494 0.000801741 0.000801741 0.000801741 0.000534494 0.000801741 0.000534494 0.00106899 0.000534494 0.00106899 0.000801741 0.00133623 0.000534494 0.00133623 0.000534494 0.00133623 0.000534494 0.00160348 0.000534494 0.00160348 0.000267247 0.00187073 0.000534494 0.00187073 0.000267247 0.00187073 0.000534494 0.00187073 0.000267247 0.00213798 0.000267247 0.00213798 0.000267247 0.00213798 0.000267247 0.00240522 0.000267247 0.00213798 0.000267247 0.00267247 0 0.00240522 0.000267247 0.00240522 0 0.00267247 0 0.00267247 0 0.00267247 0 0.00267247 -0.000267247 0.00267247 0 0.00267247 -0.000267247 0.00240522 -0.000267247 0.00267247 0 0.00267247 -0.000267247 0.00240522 -0.000267247 0.00240522 -0.000534494 0.00240522 -0.000267247 0.00240522 -0.000267247 0.00240522 -0.000534494 0.00240522 -0.000534494 0.00213798 -0.000267247 0.00213798 -0.000534494 0.00213798 -0.000534494 0.00187073 -0.000534494 0.00213798 -0.000534494 0.00187073 -0.000534494 0.00160348 -0.000801741 0.00187073 -0.000534494 0.00160348 -0.000534494 0.00133623 -0.000801741 0.00160348 -0.000534494 0.00106899 -0.000801741 0.00133623 -0.000534494 0.00106899 -0.000801741 0.00106899 -0.000801741 0.000801741 -0.000534494 0.000801741 -0.000801741 0.000534494 -0.000801741 0.000534494zm-0.0152331 0.644867l0 -0.68923 0.0299317 -0.0155003 0 0.68923 -0.0146986 0.0598633 -0.0152331 -0.044363zm0 0l0.0299317 -0.0155003 0 0.00267247 0 0.00267247 -0.000267247 0.00267247 0 0.00267247 -0.000267247 0.00240522 -0.000267247 0.00267247 -0.000267247 0.00267247 -0.000267247 0.00240522 -0.000267247 0.00240522 -0.000267247 0.00240522 -0.000267247 0.00240522 -0.000534494 0.00240522 -0.000267247 0.00213798 -0.000534494 0.00213798 -0.000534494 0.00213798 -0.000534494 0.00213798 -0.000534494 0.00213798 -0.000534494 0.00187073 -0.000534494 0.00187073 -0.000534494 0.00160348 -0.000534494 0.00187073 -0.000801741 0.00160348 -0.000534494 0.00133623 -0.000801741 0.00133623 -0.000534494 0.00133623 -0.000801741 0.00133623 -0.000534494 0.00106899 -0.000801741 0.000801741 -0.000801741 0.000801741 -0.000534494 0.000801741 -0.000801741 0.000534494 -0.000801741 0.000534494 -0.000801741 0.000267247 -0.000801741 0.000267247 -0.000534494 0 -0.000801741 0 -0.000801741 -0.000267247 -0.000534494 -0.000267247 -0.000801741 -0.000534494 -0.000534494 -0.000534494 -0.000801741 -0.000801741 -0.000534494 -0.000801741 -0.000801741 -0.000801741 -0.000534494 -0.00106899 -0.000534494 -0.00133623 -0.000534494 -0.00106899 -0.000534494 -0.00133623 -0.000534494 -0.00160348 -0.000534494 -0.00160348 -0.000534494 -0.00160348 -0.000534494 -0.00160348 -0.000267247 -0.00187073 -0.000534494 -0.00187073 -0.000267247 -0.00213798 -0.000267247 -0.00213798 -0.000267247 -0.00213798 -0.000267247 -0.00213798 -0.000267247 -0.00240522 -0.000267247 -0.00213798 -0.000267247 -0.00240522 0 -0.00267247 -0.000267247 -0.00240522 0 -0.00267247 0 -0.00267247zm-0.217272 0.0678807l0.23197 -0.127744 0.000534494 0.104226 -0.23197 0.127744 -0.0152331 -0.044363 0.0146986 -0.0598633zm0 0l0.000534494 0.104226 -0.000801741 0.000267247 -0.000801741 0.000267247 -0.000534494 0 -0.000801741 0 -0.000801741 0 -0.000534494 -0.000534494 -0.000801741 -0.000267247 -0.000801741 -0.000534494 -0.000534494 -0.000801741 -0.000801741 -0.000801741 -0.000534494 -0.000801741 -0.000534494 -0.00106899 -0.000534494 -0.00106899 -0.000801741 -0.00133623 -0.000534494 -0.00133623 -0.000534494 -0.00160348 -0.000534494 -0.00133623 -0.000534494 -0.00160348 -0.000267247 -0.00187073 -0.000534494 -0.00187073 -0.000267247 -0.00187073 -0.000534494 -0.00187073 -0.000267247 -0.00213798 -0.000267247 -0.00213798 -0.000267247 -0.00213798 -0.000267247 -0.00240522 -0.000267247 -0.00213798 -0.000267247 -0.00267247 0 -0.00240522 -0.000267247 -0.00240522 0 -0.00267247 0 -0.00267247 0 -0.00267247 0 -0.00267247 0.000267247 -0.00267247 0 -0.00267247 0.000267247 -0.00240522 0.000267247 -0.00267247 0 -0.00267247 0.000267247 -0.00240522 0.000267247 -0.00240522 0.000534494 -0.00240522 0.000267247 -0.00240522 0.000267247 -0.00240522 0.000534494 -0.00240522 0.000534494 -0.00213798 0.000267247 -0.00213798 0.000534494 -0.00213798 0.000534494 -0.00187073 0.000534494 -0.00213798 0.000534494 -0.00187073 0.000534494 -0.00160348 0.000801741 -0.00187073 0.000534494 -0.00160348 0.000534494 -0.00133623 0.000801741 -0.00160348 0.000534494 -0.00106899 0.000801741 -0.00133623 0.000534494 -0.00106899 0.000801741 -0.00106899 0.000801741 -0.000801741 0.000534494 -0.000801741 0.000801741 -0.000534494 0.000801741 -0.000534494zm0.0152331 -0.644867l0 0.68923 -0.0299317 0.0155003 0 -0.68923 0.0146986 -0.0598633 0.0152331 0.044363zm0 0l-0.0299317 0.0155003 0 -0.00267247 0 -0.00267247 0.000267247 -0.00267247 0 -0.00267247 0.000267247 -0.00240522 0.000267247 -0.00267247 0.000267247 -0.00267247 0.000267247 -0.00240522 0.000267247 -0.00240522 0.000267247 -0.00240522 0.000267247 -0.00240522 0.000534494 -0.00240522 0.000267247 -0.00213798 0.000534494 -0.00213798 0.000534494 -0.00213798 0.000534494 -0.00213798 0.000534494 -0.00213798 0.000534494 -0.00187073 0.000534494 -0.00187073 0.000534494 -0.00160348 0.000534494 -0.00187073 0.000801741 -0.00160348 0.000534494 -0.00133623 0.000801741 -0.00133623 0.000534494 -0.00133623 0.000801741 -0.00133623 0.000534494 -0.00106899 0.000801741 -0.000801741 0.000801741 -0.000801741 0.000534494 -0.000801741 0.000801741 -0.000534494 0.000801741 -0.000534494 0.000801741 -0.000267247 0.000801741 -0.000267247 0.000534494 0 0.000801741 0 0.000801741 0.000267247 0.000534494 0.000267247 0.000801741 0.000534494 0.000534494 0.000534494 0.000801741 0.000801741 0.000534494 0.000801741 0.000801741 0.000801741 0.000534494 0.00106899 0.000534494 0.00133623 0.000534494 0.00106899 0.000534494 0.00133623 0.000534494 0.00160348 0.000534494 0.00160348 0.000534494 0.00160348 0.000534494 0.00160348 0.000267247 0.00187073 0.000534494 0.00187073 0.000267247 0.00213798 0.000267247 0.00213798 0.000267247 0.00213798 0.000267247 0.00213798 0.000267247 0.00240522 0.000267247 0.00213798 0.000267247 0.00240522 0 0.00267247 0.000267247 0.00240522 0 0.00267247 0 0.00267247z"/>
   </g>
   <path class="fil2" d="M5.954 6.89016l-0.301722 0 0 0.71061c0,0.0620013 -0.0424923,0.112511 -0.0943382,0.112511l-0.552934 0c-0.0518459,0 -0.0943382,-0.0505097 -0.0943382,-0.112511l0 -0.71061 -0.329516 0c-0.0614668,0.000267247 -0.0435613,-0.137098 0,-0.188944l0.607185 -0.726377c0.0435613,-0.0521132 0.114649,-0.0521132 0.15821,0l0.607452 0.726377c0.043294,0.0521132 0.0611996,0.188944 0,0.188944z"/>
   <g>
    <polygon class="fil2" points="7.67907,5.23296 7.76272,5.15706 7.76272,5.84629 7.67907,5.92219 "/>
    <path id="1" class="fil1" d="M7.76272 5.20918l-0.0836483 0.0758981 0 -0.104226 0.0836483 -0.0758981 0.00534494 0.0478372 -0.00534494 0.0563891zm0 0l0 -0.104226 0.000267247 -0.000267247 0.000267247 0 0.000267247 0.000267247 0.000267247 0.000267247 0.000267247 0.000267247 0.000267247 0.000534494 0.000267247 0.000534494 0.000267247 0.000801741 0.000267247 0.000801741 0.000267247 0.00106899 0 0.000801741 0.000267247 0.00133623 0.000267247 0.00133623 0.000267247 0.00133623 0 0.00133623 0.000267247 0.00160348 0.000267247 0.00160348 0 0.00187073 0.000267247 0.00160348 0.000267247 0.00213798 0 0.00187073 0.000267247 0.00213798 0 0.00213798 0 0.00213798 0.000267247 0.00213798 0 0.00240522 0 0.00240522 0.000267247 0.00240522 0 0.00267247 0 0.00240522 0 0.00267247 0 0.00267247 0 0.00267247 0 0.00267247 0 0.00267247 0 0.00267247 -0.000267247 0.00240522 0 0.00267247 0 0.00240522 -0.000267247 0.00240522 0 0.00240522 0 0.00240522 -0.000267247 0.00240522 0 0.00213798 -0.000267247 0.00213798 -0.000267247 0.00213798 0 0.00213798 -0.000267247 0.00187073 -0.000267247 0.00187073 0 0.00187073 -0.000267247 0.00187073 -0.000267247 0.00160348 -0.000267247 0.00160348 0 0.00133623 -0.000267247 0.00133623 -0.000267247 0.00133623 -0.000267247 0.00106899 -0.000267247 0.00106899 -0.000267247 0.00106899 -0.000267247 0.000801741 -0.000267247 0.000534494 -0.000267247 0.000534494 -0.000267247 0.000534494 -0.000267247 0.000267247zm-0.00534494 0.641393l0 -0.68923 0.0106899 -0.0085519 0 0.68923 -0.00534494 0.0563891 -0.00534494 -0.0478372zm0 0l0.0106899 -0.0085519 0 0.00267247 0 0.00267247 0 0.00267247 0 0.00240522 -0.000267247 0.00267247 0 0.00267247 0 0.00240522 -0.000267247 0.00240522 0 0.00240522 0 0.00240522 -0.000267247 0.00213798 0 0.00240522 -0.000267247 0.00213798 -0.000267247 0.00213798 0 0.00187073 -0.000267247 0.00213798 -0.000267247 0.00187073 0 0.00160348 -0.000267247 0.00187073 -0.000267247 0.00160348 -0.000267247 0.00160348 0 0.00133623 -0.000267247 0.00133623 -0.000267247 0.00133623 -0.000267247 0.00106899 -0.000267247 0.00106899 -0.000267247 0.000801741 -0.000267247 0.000801741 -0.000267247 0.000534494 -0.000267247 0.000534494 -0.000267247 0.000534494 -0.000267247 0.000267247 -0.000267247 0 -0.000267247 0 -0.000267247 0 -0.000267247 -0.000267247 -0.000267247 -0.000267247 -0.000267247 -0.000534494 -0.000267247 -0.000801741 -0.000267247 -0.000801741 -0.000267247 -0.000801741 -0.000267247 -0.000801741 0 -0.00106899 -0.000267247 -0.00133623 -0.000267247 -0.00133623 -0.000267247 -0.00133623 0 -0.00133623 -0.000267247 -0.00160348 -0.000267247 -0.00187073 0 -0.00160348 -0.000267247 -0.00187073 -0.000267247 -0.00187073 0 -0.00213798 -0.000267247 -0.00187073 0 -0.00213798 0 -0.00240522 -0.000267247 -0.00213798 0 -0.00240522 0 -0.00240522 -0.000267247 -0.00240522 0 -0.00267247 0 -0.00240522 0 -0.00267247 0 -0.00267247zm-0.0783034 0.019509l0.0836483 -0.0758981 0 0.104226 -0.0836483 0.0758981 -0.00534494 -0.0478372 0.00534494 -0.0563891zm0 0l0 0.104226 -0.000267247 0.000267247 -0.000267247 0 -0.000267247 -0.000267247 -0.000267247 -0.000267247 -0.000267247 -0.000267247 -0.000267247 -0.000534494 -0.000267247 -0.000534494 -0.000267247 -0.000801741 -0.000267247 -0.000801741 -0.000267247 -0.00106899 0 -0.000801741 -0.000267247 -0.00133623 -0.000267247 -0.00133623 -0.000267247 -0.00133623 0 -0.00133623 -0.000267247 -0.00160348 -0.000267247 -0.00160348 0 -0.00187073 -0.000267247 -0.00160348 -0.000267247 -0.00213798 0 -0.00187073 -0.000267247 -0.00213798 0 -0.00213798 0 -0.00213798 -0.000267247 -0.00213798 0 -0.00240522 0 -0.00240522 -0.000267247 -0.00240522 0 -0.00267247 0 -0.00240522 0 -0.00267247 0 -0.00267247 0 -0.00267247 0 -0.00267247 0 -0.00267247 0 -0.00267247 0.000267247 -0.00240522 0 -0.00267247 0 -0.00240522 0.000267247 -0.00240522 0 -0.00240522 0 -0.00240522 0.000267247 -0.00240522 0 -0.00213798 0.000267247 -0.00213798 0.000267247 -0.00213798 0 -0.00213798 0.000267247 -0.00187073 0.000267247 -0.00187073 0 -0.00187073 0.000267247 -0.00187073 0.000267247 -0.00160348 0.000267247 -0.00160348 0 -0.00133623 0.000267247 -0.00133623 0.000267247 -0.00133623 0.000267247 -0.00106899 0.000267247 -0.00106899 0.000267247 -0.00106899 0.000267247 -0.000801741 0.000267247 -0.000534494 0.000267247 -0.000534494 0.000267247 -0.000534494 0.000267247 -0.000267247zm0.00534494 -0.641393l0 0.68923 -0.0106899 0.0085519 0 -0.68923 0.00534494 -0.0563891 0.00534494 0.0478372zm0 0l-0.0106899 0.0085519 0 -0.00267247 0 -0.00267247 0 -0.00267247 0 -0.00240522 0.000267247 -0.00267247 0 -0.00267247 0 -0.00240522 0.000267247 -0.00240522 0 -0.00240522 0 -0.00240522 0.000267247 -0.00213798 0 -0.00240522 0.000267247 -0.00213798 0.000267247 -0.00213798 0 -0.00187073 0.000267247 -0.00213798 0.000267247 -0.00187073 0 -0.00160348 0.000267247 -0.00187073 0.000267247 -0.00160348 0.000267247 -0.00160348 0 -0.00133623 0.000267247 -0.00133623 0.000267247 -0.00133623 0.000267247 -0.00106899 0.000267247 -0.00106899 0.000267247 -0.000801741 0.000267247 -0.000801741 0.000267247 -0.000534494 0.000267247 -0.000534494 0.000267247 -0.000534494 0.000267247 -0.000267247 0.000267247 0 0.000267247 0 0.000267247 0 0.000267247 0.000267247 0.000267247 0.000267247 0.000267247 0.000534494 0.000267247 0.000801741 0.000267247 0.000801741 0.000267247 0.000801741 0.000267247 0.000801741 0 0.00106899 0.000267247 0.00133623 0.000267247 0.00133623 0.000267247 0.00133623 0 0.00133623 0.000267247 0.00160348 0.000267247 0.00187073 0 0.00160348 0.000267247 0.00187073 0.000267247 0.00187073 0 0.00213798 0.000267247 0.00187073 0 0.00213798 0 0.00240522 0.000267247 0.00213798 0 0.00240522 0 0.00240522 0.000267247 0.00240522 0 0.00267247 0 0.00240522 0 0.00267247 0 0.00267247z"/>
   </g>
  </g>
  <rect class="fil2" x="0.692704" y="0.993357" width="1.06044" height="0.648074"/>
  <polyline class="fil0 str0" points="1.22292,1.64143 1.22292,3.99828 2.61528,3.99828 "/>
  <line class="fil0 str0" x1="1.22292" y1="2.75345" x2="2.54152" y2= "2.75345" />
  <rect class="fil2" x="2.54152" y="2.42927" width="1.06044" height="0.648074"/>
  <rect class="fil2" x="2.61528" y="3.67411" width="1.06044" height="0.648074"/>
 </g>
</svg>
