<?xml version="1.0" encoding="UTF-8"?>
<!DOCTYPE svg PUBLIC "-//W3C//DTD SVG 1.1//EN" "http://www.w3.org/Graphics/SVG/1.1/DTD/svg11.dtd">
<!-- Creator: CorelDRAW -->
<svg xmlns="http://www.w3.org/2000/svg" xml:space="preserve" width="42px" height="42px" style="shape-rendering:geometricPrecision; text-rendering:geometricPrecision; image-rendering:optimizeQuality; fill-rule:evenodd; clip-rule:evenodd"
viewBox="0 0 6.48958 6.56162"
 xmlns:xlink="http://www.w3.org/1999/xlink">
 <defs>
  <style type="text/css">
   <![CDATA[
    .fil0 {fill:none}
    .fil2 {fill:#FEFEFE}
    .fil1 {fill:#FEFEFE;fill-rule:nonzero}
   ]]>
  </style>
 </defs>
 <g id="Capa_x0020_1">
  <metadata id="CorelCorpID_0Corel-Layer"/>
  <rect class="fil0" width="6.48951" height="6.56162"/>
  <g id="_606623456">
   <g>
    <path id="_606623552" class="fil1" d="M3.9826 5.25276l1.52722 -1.24547 0.117563 0.20417 -1.52722 1.24547 -0.162709 -0.102085 0.0451458 -0.102085zm0 0l0.117563 0.20417 -0.00442245 0.00350111 -0.00460672 0.00313257 -0.00479099 0.00276403 -0.00460672 0.00257976 -0.00479099 0.00221122 -0.00497526 0.00202696 -0.00479099 0.00165842 -0.00497526 0.00128988 -0.00497526 0.00110561 -0.00497526 0.000737075 -0.00515952 0.000368537 -0.00497526 0.000184269 -0.00497526 0 -0.00497526 -0.000368537 -0.00497526 -0.000737075 -0.00497526 -0.000921344 -0.00479099 -0.00128988 -0.00497526 -0.00147415 -0.00479099 -0.00184269 -0.00460672 -0.00202696 -0.00460672 -0.00221122 -0.00460672 -0.00257976 -0.00442245 -0.0029483 -0.00423818 -0.00313257 -0.00423818 -0.00331684 -0.00405391 -0.00368537 -0.00405391 -0.00386964 -0.00368537 -0.00405391 -0.00368537 -0.00442245 -0.00350111 -0.00460672 -0.00331684 -0.00497526 -0.00313257 -0.00515952 -0.0029483 -0.00534379 -0.00257976 -0.00534379 -0.00239549 -0.00571233 -0.00221122 -0.00552806 -0.00184269 -0.00571233 -0.00165842 -0.0058966 -0.00128988 -0.00571233 -0.00110561 -0.0058966 -0.000921344 -0.0058966 -0.000737075 -0.00608087 -0.000368537 -0.0058966 -0.000184269 -0.0058966 0.000184269 -0.00608087 0.000368537 -0.0058966 0.000552806 -0.0058966 0.000737075 -0.0058966 0.00110561 -0.0058966 0.00128988 -0.00571233 0.00147415 -0.00571233 0.00165842 -0.00552806 0.00202696 -0.00552806 0.00221122 -0.00534379 0.00239549 -0.00534379 0.00257976 -0.00515952 0.00276403 -0.00497526 0.00313257 -0.00479099 0.00331684 -0.00479099 0.00350111 -0.00442245 0.00368537 -0.00442245 0.00386964 -0.00405391 0.00405391 -0.00405391 0.00442245 -0.00368537zm0.162709 -3.04891l0 3.151 -0.207855 0 0 -3.151 0.0519638 -0.107244 0.155891 0.107244zm0 0l-0.207855 0 0.000184269 -0.00644941 0.000368537 -0.00626514 0.000737075 -0.00608087 0.000737075 -0.00608087 0.00128988 -0.00608087 0.00128988 -0.0058966 0.00165842 -0.00571233 0.00184269 -0.00571233 0.00221122 -0.00534379 0.00221122 -0.00534379 0.00257976 -0.00515952 0.00257976 -0.00515952 0.0029483 -0.00479099 0.00313257 -0.00460672 0.00331684 -0.00460672 0.00331684 -0.00423818 0.00368537 -0.00405391 0.00368537 -0.00405391 0.00405391 -0.00350111 0.00405391 -0.00350111 0.00423818 -0.00331684 0.00423818 -0.0029483 0.00460672 -0.00276403 0.00460672 -0.00239549 0.00460672 -0.00221122 0.00479099 -0.00202696 0.00497526 -0.00165842 0.00497526 -0.00128988 0.00515952 -0.00110561 0.00515952 -0.000921344 0.00534379 -0.000368537 0.00534379 -0.000184269 0.00534379 0.000184269 0.00534379 0.000368537 0.00515952 0.000921344 0.00515952 0.00110561 0.00497526 0.00128988 0.00497526 0.00165842 0.00479099 0.00202696 0.00460672 0.00221122 0.00460672 0.00239549 0.00460672 0.00276403 0.00423818 0.0029483 0.00423818 0.00331684 0.00405391 0.00350111 0.00405391 0.00350111 0.00368537 0.00405391 0.00368537 0.00405391 0.00331684 0.00423818 0.00331684 0.00460672 0.00313257 0.00460672 0.0029483 0.00479099 0.00257976 0.00515952 0.00257976 0.00515952 0.00221122 0.00534379 0.00221122 0.00534379 0.00184269 0.00571233 0.00165842 0.00571233 0.00128988 0.0058966 0.00128988 0.00608087 0.000737075 0.00608087 0.000737075 0.00608087 0.000368537 0.00626514 0.000184269 0.00644941zm1.47526 -0.942719l-1.52722 1.04996 -0.103928 -0.214489 1.52722 -1.04996 0.155891 0.107244 -0.0519638 0.107244zm0 0l-0.103928 -0.214489 0.00479099 -0.0029483 0.00460672 -0.00276403 0.00497526 -0.00239549 0.00479099 -0.00221122 0.00497526 -0.00165842 0.00497526 -0.00165842 0.00497526 -0.00110561 0.00515952 -0.000921344 0.00497526 -0.000552806 0.00497526 -0.000368537 0.00515952 0 0.00497526 0.000368537 0.00497526 0.000552806 0.00497526 0.000921344 0.00479099 0.00110561 0.00497526 0.00128988 0.00479099 0.00165842 0.00460672 0.00202696 0.00460672 0.00221122 0.00460672 0.00239549 0.00442245 0.00276403 0.00442245 0.0029483 0.00423818 0.00331684 0.00405391 0.00350111 0.00405391 0.00386964 0.00368537 0.00386964 0.00368537 0.00423818 0.00350111 0.00460672 0.00350111 0.00460672 0.00313257 0.00497526 0.0029483 0.00534379 0.00276403 0.00534379 0.00257976 0.00552806 0.00221122 0.00571233 0.00202696 0.00571233 0.00184269 0.0058966 0.00147415 0.0058966 0.00128988 0.0058966 0.000921344 0.0058966 0.000737075 0.00608087 0.000552806 0.0058966 0.000184269 0.00608087 0 0.0058966 -0.000184269 0.00608087 -0.000552806 0.0058966 -0.000737075 0.0058966 -0.000921344 0.0058966 -0.00110561 0.00571233 -0.00147415 0.00571233 -0.00165842 0.00552806 -0.00184269 0.00552806 -0.00202696 0.00552806 -0.00221122 0.00534379 -0.00257976 0.00515952 -0.00276403 0.00497526 -0.0029483 0.00497526 -0.00313257 0.00460672 -0.00331684 0.00460672 -0.00368537 0.00442245 -0.00368537 0.00423818 -0.00405391 0.00386964 -0.00405391 0.00386964 -0.00442245 0.00350111 -0.00460672 0.00331684zm-0.155891 2.84824l0 -2.95549 0.207855 0 0 2.95549 -0.0451458 0.102085 -0.162709 -0.102085zm0 0l0.207855 0 -0.000184269 0.00644941 -0.000368537 0.00626514 -0.000737075 0.00608087 -0.000737075 0.00608087 -0.00128988 0.00608087 -0.00128988 0.0058966 -0.00165842 0.00571233 -0.00184269 0.00571233 -0.00221122 0.00534379 -0.00221122 0.00534379 -0.00257976 0.00515952 -0.00257976 0.00515952 -0.0029483 0.00479099 -0.00313257 0.00460672 -0.00331684 0.00460672 -0.00331684 0.00423818 -0.00368537 0.00405391 -0.00368537 0.00405391 -0.00405391 0.00350111 -0.00405391 0.00350111 -0.00423818 0.00331684 -0.00423818 0.0029483 -0.00460672 0.00276403 -0.00460672 0.00239549 -0.00460672 0.00221122 -0.00479099 0.00202696 -0.00497526 0.00165842 -0.00497526 0.00128988 -0.00515952 0.00110561 -0.00515952 0.000921344 -0.00534379 0.000368537 -0.00534379 0.000184269 -0.00534379 -0.000184269 -0.00534379 -0.000368537 -0.00515952 -0.000921344 -0.00515952 -0.00110561 -0.00497526 -0.00128988 -0.00497526 -0.00165842 -0.00479099 -0.00202696 -0.00460672 -0.00221122 -0.00460672 -0.00239549 -0.00460672 -0.00276403 -0.00423818 -0.0029483 -0.00423818 -0.00331684 -0.00405391 -0.00350111 -0.00405391 -0.00350111 -0.00368537 -0.00405391 -0.00368537 -0.00405391 -0.00331684 -0.00423818 -0.00331684 -0.00460672 -0.00313257 -0.00460672 -0.0029483 -0.00479099 -0.00257976 -0.00515952 -0.00257976 -0.00515952 -0.00221122 -0.00534379 -0.00221122 -0.00534379 -0.00184269 -0.00571233 -0.00165842 -0.00571233 -0.00128988 -0.0058966 -0.00128988 -0.00608087 -0.000737075 -0.00608087 -0.000737075 -0.00608087 -0.000368537 -0.00626514 -0.000184269 -0.00644941z"/>
   </g>
   <g>
    <path class="fil1" d="M4.0423 2.32787l-3.05444 0.0497526 -0.00221122 -0.247657 3.05444 -0.0497526 0.103928 0.12346 -0.101716 0.124197zm0 0l-0.00221122 -0.247657 0.00534379 0 0.00515952 0.000552806 0.00515952 0.000737075 0.00497526 0.000921344 0.00497526 0.00128988 0.00497526 0.00165842 0.00479099 0.00184269 0.00460672 0.00221122 0.00460672 0.00239549 0.00442245 0.00257976 0.00423818 0.0029483 0.00423818 0.00313257 0.00405391 0.00350111 0.00405391 0.00350111 0.00368537 0.00386964 0.00368537 0.00405391 0.00331684 0.00423818 0.00331684 0.00442245 0.00313257 0.00460672 0.00276403 0.00479099 0.00276403 0.00497526 0.00257976 0.00515952 0.00239549 0.00534379 0.00202696 0.00534379 0.00184269 0.00571233 0.00165842 0.00571233 0.00147415 0.00571233 0.00128988 0.00608087 0.000921344 0.00608087 0.000737075 0.00608087 0.000368537 0.00626514 0.000184269 0.00644941 0 0.00644941 -0.000368537 0.00626514 -0.000737075 0.00608087 -0.000737075 0.00626514 -0.00110561 0.0058966 -0.00128988 0.0058966 -0.00165842 0.0058966 -0.00184269 0.00552806 -0.00202696 0.00552806 -0.00221122 0.00552806 -0.00239549 0.00515952 -0.00257976 0.00497526 -0.00276403 0.00497526 -0.00313257 0.00479099 -0.00313257 0.00442245 -0.00331684 0.00442245 -0.00350111 0.00423818 -0.00368537 0.00386964 -0.00386964 0.00368537 -0.00405391 0.00368537 -0.00405391 0.00313257 -0.00442245 0.00313257 -0.00423818 0.00276403 -0.00460672 0.00257976 -0.00460672 0.00239549 -0.00479099 0.00184269 -0.00479099 0.00184269 -0.00497526 0.00147415 -0.00497526 0.00110561 -0.00515952 0.000921344 -0.00515952 0.000552806 -0.00534379 0.000184269zm-0.103928 3.02735l0 -3.15081 0.205644 -0.000737075 0 3.15081 -0.101716 0.124197 -0.103928 -0.12346zm0 0l0.205644 -0.000737075 -0.000184269 0.00644941 -0.000368537 0.00626514 -0.000552806 0.00608087 -0.000921344 0.00608087 -0.00128988 0.00608087 -0.00128988 0.0058966 -0.00165842 0.00571233 -0.00184269 0.00571233 -0.00202696 0.00534379 -0.00221122 0.00552806 -0.00257976 0.00515952 -0.00257976 0.00497526 -0.0029483 0.00479099 -0.0029483 0.00479099 -0.00331684 0.00442245 -0.00331684 0.00442245 -0.00368537 0.00405391 -0.00368537 0.00386964 -0.00386964 0.00368537 -0.00405391 0.00350111 -0.00423818 0.00331684 -0.00423818 0.0029483 -0.00442245 0.00276403 -0.00460672 0.00239549 -0.00460672 0.00239549 -0.00479099 0.00184269 -0.00497526 0.00165842 -0.00497526 0.00147415 -0.00497526 0.00110561 -0.00515952 0.000737075 -0.00515952 0.000552806 -0.00534379 0.000184269 -0.00534379 -0.000184269 -0.00515952 -0.000368537 -0.00515952 -0.000737075 -0.00497526 -0.00110561 -0.00497526 -0.00147415 -0.00497526 -0.00165842 -0.00479099 -0.00184269 -0.00460672 -0.00221122 -0.00460672 -0.00239549 -0.00442245 -0.00276403 -0.00423818 -0.0029483 -0.00423818 -0.00331684 -0.00405391 -0.00331684 -0.00386964 -0.00368537 -0.00368537 -0.00386964 -0.00350111 -0.00423818 -0.00350111 -0.00423818 -0.00331684 -0.00442245 -0.0029483 -0.00460672 -0.0029483 -0.00497526 -0.00257976 -0.00497526 -0.00257976 -0.00515952 -0.00221122 -0.00534379 -0.00202696 -0.00552806 -0.00184269 -0.00552806 -0.00165842 -0.00571233 -0.00128988 -0.0058966 -0.00128988 -0.00608087 -0.000921344 -0.00608087 -0.000552806 -0.00608087 -0.000368537 -0.00626514 -0.000184269 -0.00644941zm-2.95272 -0.0744446l3.05444 -0.0497526 0.00221122 0.247657 -3.05444 0.0497526 -0.103928 -0.12346 0.101716 -0.124197zm0 0l0.00221122 0.247657 -0.00534379 0 -0.00515952 -0.000552806 -0.00515952 -0.000737075 -0.00497526 -0.000921344 -0.00497526 -0.00128988 -0.00497526 -0.00165842 -0.00479099 -0.00184269 -0.00460672 -0.00221122 -0.00460672 -0.00239549 -0.00442245 -0.00257976 -0.00423818 -0.0029483 -0.00423818 -0.00313257 -0.00405391 -0.00350111 -0.00405391 -0.00350111 -0.00368537 -0.00386964 -0.00350111 -0.00405391 -0.00350111 -0.00423818 -0.00331684 -0.00442245 -0.00313257 -0.00460672 -0.00276403 -0.00479099 -0.00276403 -0.00497526 -0.00257976 -0.00515952 -0.00239549 -0.00534379 -0.00202696 -0.00534379 -0.00184269 -0.00571233 -0.00165842 -0.00571233 -0.00147415 -0.00571233 -0.00128988 -0.00608087 -0.000921344 -0.00608087 -0.000737075 -0.00608087 -0.000368537 -0.00626514 -0.000184269 -0.00644941 0 -0.00644941 0.000368537 -0.00626514 0.000737075 -0.00608087 0.000737075 -0.00626514 0.00110561 -0.0058966 0.00128988 -0.0058966 0.00165842 -0.0058966 0.00184269 -0.00552806 0.00202696 -0.00552806 0.00221122 -0.00552806 0.00239549 -0.00515952 0.00257976 -0.00497526 0.00276403 -0.00497526 0.00313257 -0.00479099 0.00313257 -0.00442245 0.00331684 -0.00442245 0.00350111 -0.00423818 0.00368537 -0.00386964 0.00386964 -0.00368537 0.00405391 -0.00368537 0.00405391 -0.00313257 0.00442245 -0.00313257 0.00423818 -0.00276403 0.00460672 -0.00257976 0.00460672 -0.00239549 0.00479099 -0.00184269 0.00479099 -0.00184269 0.00497526 -0.00147415 0.00497526 -0.00110561 0.00515952 -0.000921344 0.00515952 -0.000552806 0.00534379 -0.000184269zm0.103928 -3.02735l0 3.15081 -0.205644 0.000737075 0 -3.15081 0.101716 -0.124197 0.103928 0.12346zm0 0l-0.205644 0.000737075 0.000184269 -0.00644941 0.000368537 -0.00626514 0.000552806 -0.00608087 0.000921344 -0.00608087 0.00128988 -0.00608087 0.00128988 -0.0058966 0.00165842 -0.00571233 0.00184269 -0.00571233 0.00202696 -0.00534379 0.00221122 -0.00552806 0.00257976 -0.00515952 0.00257976 -0.00497526 0.0029483 -0.00479099 0.0029483 -0.00479099 0.00331684 -0.00442245 0.00350111 -0.00442245 0.00350111 -0.00405391 0.00368537 -0.00386964 0.00386964 -0.00368537 0.00405391 -0.00350111 0.00423818 -0.00331684 0.00423818 -0.0029483 0.00442245 -0.00276403 0.00460672 -0.00239549 0.00460672 -0.00239549 0.00479099 -0.00184269 0.00497526 -0.00165842 0.00497526 -0.00147415 0.00497526 -0.00110561 0.00515952 -0.000737075 0.00515952 -0.000552806 0.00534379 -0.000184269 0.00534379 0.000184269 0.00515952 0.000368537 0.00515952 0.000737075 0.00497526 0.00110561 0.00497526 0.00147415 0.00497526 0.00165842 0.00479099 0.00184269 0.00460672 0.00221122 0.00460672 0.00239549 0.00442245 0.00276403 0.00423818 0.0029483 0.00423818 0.00331684 0.00405391 0.00331684 0.00386964 0.00368537 0.00368537 0.00386964 0.00368537 0.00405391 0.00331684 0.00442245 0.00331684 0.00442245 0.0029483 0.00460672 0.0029483 0.00497526 0.00257976 0.00497526 0.00257976 0.00515952 0.00221122 0.00534379 0.00202696 0.00552806 0.00184269 0.00552806 0.00165842 0.00571233 0.00128988 0.0058966 0.00128988 0.00608087 0.000921344 0.00608087 0.000552806 0.00608087 0.000368537 0.00626514 0.000184269 0.00644941z"/>
   </g>
   <g>
    <path class="fil1" d="M2.56502 1.31107l-1.52722 1.05015 -0.102085 -0.214857 1.52722 -1.05015 0.0495683 -0.0162156 0.0525166 0.231073zm0 0l-0.102085 -0.214857 0.00460672 -0.0029483 0.00479099 -0.00276403 0.00479099 -0.00239549 0.00479099 -0.00202696 0.00497526 -0.00184269 0.00479099 -0.00128988 0.00497526 -0.00128988 0.00497526 -0.000737075 0.00497526 -0.000552806 0.00497526 -0.000368537 0.00497526 0 0.00497526 0.000368537 0.00497526 0.000552806 0.00479099 0.000921344 0.00497526 0.00110561 0.00479099 0.00147415 0.00460672 0.00165842 0.00479099 0.00202696 0.00442245 0.00221122 0.00460672 0.00257976 0.00442245 0.00276403 0.00423818 0.0029483 0.00423818 0.00331684 0.00405391 0.00350111 0.00386964 0.00368537 0.00368537 0.00405391 0.00368537 0.00423818 0.00350111 0.00460672 0.00313257 0.00460672 0.00313257 0.00497526 0.0029483 0.00534379 0.00276403 0.00534379 0.00257976 0.00552806 0.00221122 0.00571233 0.00184269 0.00571233 0.00184269 0.0058966 0.00147415 0.0058966 0.00110561 0.0058966 0.000921344 0.0058966 0.000737075 0.00608087 0.000552806 0.0058966 0.000184269 0.00608087 0 0.0058966 -0.000184269 0.00608087 -0.000552806 0.0058966 -0.000737075 0.0058966 -0.000921344 0.00571233 -0.00110561 0.0058966 -0.00147415 0.00571233 -0.00165842 0.00552806 -0.00184269 0.00552806 -0.00202696 0.00534379 -0.00221122 0.00534379 -0.00257976 0.00515952 -0.00276403 0.00497526 -0.0029483 0.00497526 -0.00313257 0.00460672 -0.00331684 0.00460672 -0.00350111 0.00442245 -0.00368537 0.00405391 -0.00405391 0.00405391 -0.00405391 0.00368537 -0.00423818 0.00350111 -0.00460672 0.00331684zm3.00505 -0.0335369l-3.05462 0.0497526 -0.0029483 -0.247289 3.05462 -0.0497526 0.0525166 0.231073 -0.0495683 0.0162156zm0 0l-0.0029483 -0.247289 0.00534379 0 0.00515952 0.000552806 0.00515952 0.000737075 0.00515952 0.000921344 0.00497526 0.00128988 0.00479099 0.00165842 0.00479099 0.00184269 0.00479099 0.00221122 0.00460672 0.00239549 0.00442245 0.00257976 0.00442245 0.0029483 0.00405391 0.00313257 0.00405391 0.00350111 0.00405391 0.00350111 0.00368537 0.00386964 0.00368537 0.00405391 0.00350111 0.00423818 0.00331684 0.00442245 0.0029483 0.00460672 0.0029483 0.00479099 0.00276403 0.00497526 0.00257976 0.00515952 0.00239549 0.00515952 0.00202696 0.00552806 0.00202696 0.00552806 0.00165842 0.00571233 0.00147415 0.0058966 0.00110561 0.0058966 0.000921344 0.00608087 0.000737075 0.00626514 0.000552806 0.00626514 0.000184269 0.00626514 0 0.00626514 -0.000368537 0.00644941 -0.000552806 0.00608087 -0.000921344 0.00608087 -0.00110561 0.00608087 -0.00128988 0.0058966 -0.00147415 0.00571233 -0.00184269 0.00571233 -0.00202696 0.00552806 -0.00221122 0.00534379 -0.00239549 0.00515952 -0.00257976 0.00515952 -0.00276403 0.00479099 -0.00313257 0.00479099 -0.00313257 0.00460672 -0.00331684 0.00423818 -0.00350111 0.00423818 -0.00368537 0.00386964 -0.00386964 0.00386964 -0.00405391 0.00350111 -0.00405391 0.00313257 -0.00423818 0.00313257 -0.00442245 0.00276403 -0.00460672 0.00257976 -0.00460672 0.00239549 -0.00479099 0.00184269 -0.00479099 0.00184269 -0.00497526 0.00147415 -0.00497526 0.00110561 -0.00515952 0.000921344 -0.00515952 0.000552806 -0.00534379 0.000184269zm-1.57974 0.81889l1.52722 -1.04996 0.102085 0.214857 -1.52722 1.04996 -0.0495683 0.0162156 -0.0525166 -0.231073zm0 0l0.102085 0.214857 -0.00460672 0.0029483 -0.00479099 0.00276403 -0.00479099 0.00239549 -0.00479099 0.00202696 -0.00497526 0.00184269 -0.00479099 0.00128988 -0.00497526 0.00128988 -0.00497526 0.000737075 -0.00497526 0.000552806 -0.00497526 0.000368537 -0.00497526 0 -0.00497526 -0.000368537 -0.00497526 -0.000552806 -0.00479099 -0.000921344 -0.00497526 -0.00110561 -0.00479099 -0.00147415 -0.00460672 -0.00165842 -0.00479099 -0.00202696 -0.00442245 -0.00221122 -0.00460672 -0.00257976 -0.00442245 -0.00276403 -0.00423818 -0.0029483 -0.00423818 -0.00331684 -0.00405391 -0.00350111 -0.00386964 -0.00368537 -0.00368537 -0.00405391 -0.00368537 -0.00423818 -0.00350111 -0.00460672 -0.00313257 -0.00460672 -0.00313257 -0.00497526 -0.0029483 -0.00534379 -0.00276403 -0.00534379 -0.00257976 -0.00552806 -0.00221122 -0.00571233 -0.00184269 -0.00571233 -0.00184269 -0.0058966 -0.00147415 -0.0058966 -0.00110561 -0.0058966 -0.000921344 -0.0058966 -0.000737075 -0.00608087 -0.000552806 -0.0058966 -0.000184269 -0.00608087 0 -0.0058966 0.000184269 -0.00608087 0.000552806 -0.0058966 0.000737075 -0.0058966 0.000921344 -0.00571233 0.00110561 -0.0058966 0.00147415 -0.00571233 0.00165842 -0.00552806 0.00184269 -0.00552806 0.00202696 -0.00534379 0.00221122 -0.00534379 0.00257976 -0.00515952 0.00276403 -0.00497526 0.0029483 -0.00497526 0.00313257 -0.00460672 0.00331684 -0.00460672 0.00350111 -0.00442245 0.00368537 -0.00405391 0.00405391 -0.00405391 0.00405391 -0.00368537 0.00423818 -0.00350111 0.00460672 -0.00331684zm-3.00505 0.0337212l3.05462 -0.0499368 0.0029483 0.247289 -3.05462 0.0499368 -0.0525166 -0.231073 0.0495683 -0.0162156zm0 0l0.0029483 0.247289 -0.00534379 0 -0.00515952 -0.000552806 -0.00515952 -0.000737075 -0.00515952 -0.000921344 -0.00497526 -0.00128988 -0.00479099 -0.00165842 -0.00479099 -0.00184269 -0.00479099 -0.00221122 -0.00460672 -0.00239549 -0.00442245 -0.00257976 -0.00442245 -0.0029483 -0.00405391 -0.00313257 -0.00405391 -0.00350111 -0.00405391 -0.00350111 -0.00368537 -0.00386964 -0.00368537 -0.00405391 -0.00350111 -0.00423818 -0.00331684 -0.00442245 -0.0029483 -0.00460672 -0.0029483 -0.00479099 -0.00276403 -0.00497526 -0.00257976 -0.00515952 -0.00239549 -0.00515952 -0.00202696 -0.00552806 -0.00202696 -0.00552806 -0.00165842 -0.00571233 -0.00147415 -0.0058966 -0.00110561 -0.0058966 -0.000921344 -0.00608087 -0.000737075 -0.00626514 -0.000552806 -0.00626514 -0.000184269 -0.00626514 0 -0.00626514 0.000368537 -0.00644941 0.000552806 -0.00608087 0.000921344 -0.00608087 0.00110561 -0.00608087 0.00128988 -0.0058966 0.00147415 -0.00571233 0.00184269 -0.00571233 0.00202696 -0.00552806 0.00221122 -0.00534379 0.00239549 -0.00515952 0.00257976 -0.00515952 0.00276403 -0.00479099 0.00313257 -0.00479099 0.00313257 -0.00460672 0.00331684 -0.00423818 0.00350111 -0.00423818 0.00368537 -0.00386964 0.00386964 -0.00386964 0.00405391 -0.00350111 0.00405391 -0.00313257 0.00423818 -0.00313257 0.00442245 -0.00276403 0.00460672 -0.00257976 0.00460672 -0.00239549 0.00479099 -0.00184269 0.00479099 -0.00184269 0.00497526 -0.00147415 0.00497526 -0.00110561 0.00515952 -0.000921344 0.00515952 -0.000552806 0.00534379 -0.000184269z"/>
   </g>
   <g>
    <polygon class="fil2" points="4.9806,2.19925 5.19859,2.0791 5.19859,2.72681 4.9806,2.84677 "/>
    <path id="1" class="fil1" d="M5.19877 2.12812l-0.21799 0.120143 -0.000368537 -0.098031 0.21799 -0.120143 0.014373 0.0416447 -0.0140044 0.0563862zm0 0l-0.000368537 -0.098031 0.000737075 -0.000368537 0.000737075 -0.000184269 0.000737075 0 0.000552806 0 0.000737075 0.000184269 0.000737075 0.000368537 0.000552806 0.000368537 0.000737075 0.000552806 0.000552806 0.000552806 0.000737075 0.000737075 0.000552806 0.000921344 0.000552806 0.000921344 0.000552806 0.00110561 0.000552806 0.00110561 0.000552806 0.00128988 0.000552806 0.00147415 0.000368537 0.00128988 0.000552806 0.00165842 0.000368537 0.00165842 0.000368537 0.00165842 0.000368537 0.00184269 0.000368537 0.00184269 0.000368537 0.00184269 0.000368537 0.00202696 0.000184269 0.00202696 0.000184269 0.00221122 0.000184269 0.00221122 0.000184269 0.00239549 0.000184269 0.00221122 0.000184269 0.00239549 0 0.00239549 0 0.00257976 0 0.00257976 0 0.00239549 -0.000184269 0.00257976 -0.000184269 0.00239549 0 0.00257976 -0.000184269 0.00239549 -0.000368537 0.00239549 -0.000184269 0.00221122 -0.000184269 0.00239549 -0.000368537 0.00221122 -0.000368537 0.00239549 -0.000368537 0.00221122 -0.000368537 0.00202696 -0.000368537 0.00202696 -0.000552806 0.00202696 -0.000368537 0.00202696 -0.000552806 0.00184269 -0.000552806 0.00184269 -0.000552806 0.00184269 -0.000368537 0.00165842 -0.000737075 0.00165842 -0.000552806 0.00147415 -0.000552806 0.00128988 -0.000552806 0.00147415 -0.000737075 0.00110561 -0.000552806 0.00128988 -0.000737075 0.000921344 -0.000737075 0.000921344 -0.000552806 0.000921344 -0.000737075 0.000552806 -0.000737075 0.000737075 -0.000737075 0.000368537zm-0.014373 0.60606l0 -0.647705 0.0283774 -0.0147415 0 0.647705 -0.0140044 0.0563862 -0.014373 -0.0416447zm0 0l0.0283774 -0.0147415 0 0.00257976 0 0.00239549 -0.000184269 0.00257976 -0.000184269 0.00239549 0 0.00239549 -0.000368537 0.00257976 -0.000184269 0.00239549 -0.000184269 0.00221122 -0.000368537 0.00239549 -0.000184269 0.00221122 -0.000368537 0.00221122 -0.000368537 0.00221122 -0.000368537 0.00221122 -0.000552806 0.00202696 -0.000368537 0.00202696 -0.000552806 0.00184269 -0.000368537 0.00202696 -0.000552806 0.00184269 -0.000552806 0.00165842 -0.000552806 0.00165842 -0.000552806 0.00165842 -0.000737075 0.00147415 -0.000552806 0.00128988 -0.000552806 0.00128988 -0.000737075 0.00128988 -0.000552806 0.00110561 -0.000737075 0.00110561 -0.000737075 0.000921344 -0.000552806 0.000737075 -0.000737075 0.000737075 -0.000737075 0.000552806 -0.000737075 0.000368537 -0.000737075 0.000368537 -0.000737075 0.000184269 -0.000737075 0 -0.000552806 0 -0.000737075 -0.000184269 -0.000737075 -0.000368537 -0.000552806 -0.000552806 -0.000737075 -0.000552806 -0.000552806 -0.000552806 -0.000552806 -0.000737075 -0.000737075 -0.000921344 -0.000552806 -0.000921344 -0.000552806 -0.00110561 -0.000552806 -0.00128988 -0.000552806 -0.00128988 -0.000368537 -0.00128988 -0.000552806 -0.00147415 -0.000368537 -0.00147415 -0.000552806 -0.00165842 -0.000368537 -0.00184269 -0.000368537 -0.00165842 -0.000368537 -0.00184269 -0.000184269 -0.00202696 -0.000368537 -0.00202696 -0.000184269 -0.00202696 -0.000184269 -0.00221122 -0.000368537 -0.00221122 0 -0.00221122 -0.000184269 -0.00239549 -0.000184269 -0.00239549 0 -0.00239549 0 -0.00257976zm-0.203985 0.0635727l0.21799 -0.119959 0.000368537 0.098031 -0.21799 0.119959 -0.014373 -0.0416447 0.0140044 -0.0563862zm0 0l0.000368537 0.098031 -0.000737075 0.000368537 -0.000737075 0.000184269 -0.000737075 0 -0.000552806 0 -0.000737075 -0.000184269 -0.000737075 -0.000368537 -0.000552806 -0.000368537 -0.000737075 -0.000552806 -0.000552806 -0.000552806 -0.000737075 -0.000737075 -0.000552806 -0.000921344 -0.000552806 -0.000921344 -0.000552806 -0.00110561 -0.000552806 -0.00110561 -0.000552806 -0.00128988 -0.000552806 -0.00147415 -0.000368537 -0.00128988 -0.000552806 -0.00165842 -0.000368537 -0.00165842 -0.000368537 -0.00165842 -0.000368537 -0.00184269 -0.000368537 -0.00184269 -0.000368537 -0.00184269 -0.000368537 -0.00202696 -0.000184269 -0.00202696 -0.000184269 -0.00221122 -0.000184269 -0.00221122 -0.000184269 -0.00239549 -0.000184269 -0.00221122 -0.000184269 -0.00239549 0 -0.00239549 0 -0.00257976 0 -0.00257976 0 -0.00239549 0.000184269 -0.00257976 0.000184269 -0.00239549 0 -0.00257976 0.000184269 -0.00239549 0.000368537 -0.00239549 0.000184269 -0.00221122 0.000184269 -0.00239549 0.000368537 -0.00221122 0.000368537 -0.00239549 0.000368537 -0.00221122 0.000368537 -0.00202696 0.000368537 -0.00202696 0.000552806 -0.00202696 0.000368537 -0.00202696 0.000552806 -0.00184269 0.000552806 -0.00184269 0.000552806 -0.00184269 0.000368537 -0.00165842 0.000737075 -0.00165842 0.000552806 -0.00147415 0.000552806 -0.00128988 0.000552806 -0.00147415 0.000737075 -0.00110561 0.000552806 -0.00128988 0.000737075 -0.000921344 0.000737075 -0.000921344 0.000552806 -0.000921344 0.000737075 -0.000552806 0.000737075 -0.000737075 0.000737075 -0.000368537zm0.014373 -0.605876l0 0.64752 -0.0283774 0.0147415 0 -0.64752 0.0140044 -0.0563862 0.014373 0.0416447zm0 0l-0.0283774 0.0147415 0 -0.00257976 0 -0.00239549 0.000184269 -0.00257976 0.000184269 -0.00239549 0 -0.00239549 0.000368537 -0.00257976 0.000184269 -0.00239549 0.000184269 -0.00221122 0.000368537 -0.00239549 0.000184269 -0.00221122 0.000368537 -0.00221122 0.000368537 -0.00221122 0.000368537 -0.00221122 0.000552806 -0.00202696 0.000368537 -0.00202696 0.000552806 -0.00202696 0.000368537 -0.00184269 0.000552806 -0.00184269 0.000552806 -0.00165842 0.000552806 -0.00165842 0.000552806 -0.00165842 0.000737075 -0.00147415 0.000552806 -0.00128988 0.000552806 -0.00128988 0.000737075 -0.00128988 0.000552806 -0.00110561 0.000737075 -0.00110561 0.000737075 -0.000921344 0.000552806 -0.000737075 0.000737075 -0.000737075 0.000737075 -0.000552806 0.000737075 -0.000368537 0.000737075 -0.000368537 0.000737075 -0.000184269 0.000737075 0 0.000552806 0 0.000737075 0.000184269 0.000737075 0.000368537 0.000552806 0.000552806 0.000737075 0.000368537 0.000552806 0.000737075 0.000552806 0.000737075 0.000737075 0.000921344 0.000552806 0.000921344 0.000552806 0.00110561 0.000552806 0.00128988 0.000552806 0.00128988 0.000368537 0.00128988 0.000552806 0.00147415 0.000368537 0.00147415 0.000552806 0.00165842 0.000368537 0.00184269 0.000368537 0.00165842 0.000368537 0.00184269 0.000184269 0.00202696 0.000368537 0.00202696 0.000184269 0.00202696 0.000184269 0.00221122 0.000368537 0.00221122 0 0.00221122 0.000184269 0.00239549 0.000184269 0.00239549 0 0.00239549 0 0.00257976z"/>
   </g>
   <path class="fil2" d="M3.1591 3.86614l-0.28359 0 0 0.667606c0,0.0582289 -0.039802,0.10577 -0.088449,0.10577l-0.519822 0c-0.0486469,0 -0.088449,-0.0475413 -0.088449,-0.10577l0 -0.667606 -0.309756 0c-0.0576761,0 -0.0407234,-0.128804 0,-0.177635l0.57068 -0.682531c0.0409077,-0.0490155 0.107797,-0.0490155 0.148521,0l0.570864 0.682531c0.0407234,0.0488312 0.0576761,0.177451 0,0.177635z"/>
   <g>
    <polygon class="fil2" points="4.78011,2.30889 4.85861,2.23758 4.85861,2.88528 4.78011,2.95641 "/>
    <path id="1" class="fil1" d="M4.85861 2.28659l-0.0784985 0.071312 0 -0.098031 0.0784985 -0.071312 0.00515952 0.0449616 -0.00515952 0.0530694zm0 0l0 -0.098031 0.000184269 -0.000184269 0.000368537 0 0.000184269 0 0.000368537 0.000368537 0.000184269 0.000184269 0.000184269 0.000552806 0.000184269 0.000552806 0.000368537 0.000737075 0.000184269 0.000737075 0.000184269 0.000921344 0.000184269 0.000921344 0.000184269 0.00110561 0.000368537 0.00128988 0.000184269 0.00110561 0.000184269 0.00147415 0.000184269 0.00147415 0.000184269 0.00147415 0 0.00165842 0.000184269 0.00165842 0.000184269 0.00184269 0.000184269 0.00184269 0.000184269 0.00202696 0 0.00202696 0.000184269 0.00202696 0 0.00221122 0.000184269 0.00202696 0 0.00239549 0 0.00221122 0.000184269 0.00239549 0 0.00239549 0 0.00239549 0 0.00257976 0 0.00257976 0 0.00239549 0 0.00257976 -0.000184269 0.00239549 0 0.00239549 0 0.00239549 -0.000184269 0.00239549 0 0.00221122 -0.000184269 0.00239549 0 0.00221122 -0.000184269 0.00202696 -0.000184269 0.00221122 -0.000184269 0.00202696 -0.000184269 0.00202696 0 0.00184269 -0.000184269 0.00184269 -0.000184269 0.00184269 -0.000184269 0.00165842 -0.000184269 0.00165842 -0.000368537 0.00165842 -0.000184269 0.00147415 -0.000184269 0.00128988 -0.000184269 0.00128988 -0.000184269 0.00128988 -0.000368537 0.000921344 -0.000184269 0.00110561 -0.000184269 0.000921344 -0.000184269 0.000737075 -0.000368537 0.000552806 -0.000184269 0.000552806 -0.000368537 0.000368537 -0.000184269 0.000368537zm-0.00515952 0.602743l0 -0.647705 0.010319 -0.00810782 0 0.647705 -0.00515952 0.0530694 -0.00515952 -0.0449616zm0 0l0.010319 -0.00810782 0 0.00257976 0 0.00239549 0 0.00257976 -0.000184269 0.00239549 0 0.00239549 0 0.00239549 -0.000184269 0.00221122 0 0.00239549 -0.000184269 0.00221122 0 0.00221122 -0.000184269 0.00221122 -0.000184269 0.00202696 -0.000184269 0.00202696 -0.000184269 0.00202696 0 0.00184269 -0.000184269 0.00184269 -0.000184269 0.00184269 -0.000184269 0.00165842 -0.000184269 0.00165842 -0.000368537 0.00147415 -0.000184269 0.00147415 -0.000184269 0.00128988 -0.000184269 0.00128988 -0.000184269 0.00110561 -0.000368537 0.00110561 -0.000184269 0.000921344 -0.000184269 0.000921344 -0.000184269 0.000737075 -0.000368537 0.000737075 -0.000184269 0.000368537 -0.000368537 0.000552806 -0.000184269 0.000184269 -0.000184269 0.000184269 -0.000368537 0 -0.000184269 -0.000184269 -0.000368537 -0.000184269 -0.000184269 -0.000368537 -0.000184269 -0.000552806 -0.000184269 -0.000552806 -0.000368537 -0.000737075 -0.000184269 -0.000737075 -0.000184269 -0.000921344 -0.000184269 -0.000921344 -0.000184269 -0.00110561 -0.000368537 -0.00128988 -0.000184269 -0.00128988 -0.000184269 -0.00147415 -0.000184269 -0.00147415 -0.000184269 -0.00147415 0 -0.00165842 -0.000184269 -0.00184269 -0.000184269 -0.00165842 -0.000184269 -0.00202696 -0.000184269 -0.00184269 0 -0.00202696 -0.000184269 -0.00221122 0 -0.00202696 -0.000184269 -0.00221122 0 -0.00239549 0 -0.00221122 -0.000184269 -0.00239549 0 -0.00239549 0 -0.00239549 0 -0.00257976zm-0.0733389 0.0180583l0.0784985 -0.0711277 0 0.098031 -0.0784985 0.0711277 -0.00515952 -0.0449616 0.00515952 -0.0530694zm0 0l0 0.098031 -0.000184269 0.000184269 -0.000368537 0 -0.000184269 0 -0.000368537 -0.000368537 -0.000184269 -0.000184269 -0.000184269 -0.000552806 -0.000184269 -0.000552806 -0.000368537 -0.000737075 -0.000184269 -0.000737075 -0.000184269 -0.000921344 -0.000184269 -0.000921344 -0.000184269 -0.00110561 -0.000368537 -0.00128988 -0.000184269 -0.00110561 -0.000184269 -0.00147415 -0.000184269 -0.00147415 -0.000184269 -0.00147415 0 -0.00165842 -0.000184269 -0.00165842 -0.000184269 -0.00184269 -0.000184269 -0.00184269 -0.000184269 -0.00202696 0 -0.00202696 -0.000184269 -0.00202696 0 -0.00221122 -0.000184269 -0.00202696 0 -0.00239549 0 -0.00221122 -0.000184269 -0.00239549 0 -0.00239549 0 -0.00239549 0 -0.00257976 0 -0.00257976 0 -0.00239549 0 -0.00257976 0.000184269 -0.00239549 0 -0.00239549 0 -0.00239549 0.000184269 -0.00239549 0 -0.00221122 0.000184269 -0.00239549 0 -0.00221122 0.000184269 -0.00202696 0.000184269 -0.00221122 0.000184269 -0.00202696 0.000184269 -0.00202696 0 -0.00184269 0.000184269 -0.00184269 0.000184269 -0.00184269 0.000184269 -0.00165842 0.000184269 -0.00165842 0.000368537 -0.00165842 0.000184269 -0.00147415 0.000184269 -0.00128988 0.000184269 -0.00128988 0.000184269 -0.00128988 0.000368537 -0.000921344 0.000184269 -0.00110561 0.000184269 -0.000921344 0.000184269 -0.000737075 0.000368537 -0.000552806 0.000184269 -0.000552806 0.000368537 -0.000368537 0.000184269 -0.000368537zm0.00515952 -0.602559l0 0.64752 -0.010319 0.00810782 0 -0.64752 0.00515952 -0.0530694 0.00515952 0.0449616zm0 0l-0.010319 0.00810782 0 -0.00257976 0 -0.00239549 0 -0.00257976 0.000184269 -0.00239549 0 -0.00239549 0 -0.00239549 0.000184269 -0.00221122 0 -0.00239549 0.000184269 -0.00221122 0 -0.00221122 0.000184269 -0.00221122 0.000184269 -0.00202696 0.000184269 -0.00202696 0.000184269 -0.00202696 0 -0.00184269 0.000184269 -0.00184269 0.000184269 -0.00184269 0.000184269 -0.00165842 0.000184269 -0.00165842 0.000368537 -0.00147415 0.000184269 -0.00147415 0.000184269 -0.00128988 0.000184269 -0.00128988 0.000184269 -0.00110561 0.000368537 -0.00110561 0.000184269 -0.000921344 0.000184269 -0.000921344 0.000184269 -0.000737075 0.000368537 -0.000737075 0.000184269 -0.000368537 0.000368537 -0.000552806 0.000184269 -0.000184269 0.000184269 -0.000184269 0.000368537 0 0.000184269 0.000184269 0.000368537 0.000184269 0.000184269 0.000368537 0.000184269 0.000552806 0.000184269 0.000552806 0.000368537 0.000737075 0.000184269 0.000737075 0.000184269 0.000921344 0.000184269 0.000921344 0.000184269 0.00110561 0.000368537 0.00128988 0.000184269 0.00128988 0.000184269 0.00147415 0.000184269 0.00147415 0.000184269 0.00147415 0 0.00165842 0.000184269 0.00184269 0.000184269 0.00165842 0.000184269 0.00202696 0.000184269 0.00184269 0 0.00202696 0.000184269 0.00221122 0 0.00202696 0.000184269 0.00221122 0 0.00239549 0 0.00221122 0.000184269 0.00239549 0 0.00239549 0 0.00239549 0 0.00257976z"/>
   </g>
  </g>
 </g>
</svg>
