<?xml version="1.0" encoding="UTF-8"?>
<!DOCTYPE svg PUBLIC "-//W3C//DTD SVG 1.1//EN" "http://www.w3.org/Graphics/SVG/1.1/DTD/svg11.dtd">
<!-- Creator: CorelDRAW -->
<svg xmlns="http://www.w3.org/2000/svg" xml:space="preserve" width="11.8474mm" height="3.0993mm" style="shape-rendering:geometricPrecision; text-rendering:geometricPrecision; image-rendering:optimizeQuality; fill-rule:evenodd; clip-rule:evenodd"
viewBox="0 0 5.40145 1.41303"
 xmlns:xlink="http://www.w3.org/1999/xlink">
 <defs>
  <style type="text/css">
   <![CDATA[
    .fil0 {fill:#FEFEFE}
    .fil2 {fill:#E5097F;fill-rule:nonzero}
    .fil1 {fill:#FEFEFE;fill-rule:nonzero}
   ]]>
  </style>
 </defs>
 <g id="Contenido_x0020_de_x0020_PowerClip">
  <metadata id="CorelCorpID_0Corel-Layer"/>
  <path class="fil0" d="M0.784088 0c0.074497,0.00788739 0.145529,0.0274007 0.211227,0.0565339l-0.0724454 0.125514 0.130894 0.0755912 0.0724454 -0.125423c0.0591326,0.0432666 0.111335,0.0954693 0.154602,0.154602l-0.125423 0.0724454 0.0755912 0.130894 0.125514 -0.0724454c0.0291788,0.0656978 0.0486465,0.13673 0.0565339,0.211227l-0.144845 0 0 0.151182 0.144845 0c-0.00788739,0.0744514 -0.0273551,0.145438 -0.0565339,0.211227l-0.125514 -0.0724454 -0.0755912 0.130894 0.125423 0.0723998c-0.128888,0.176304 -0.337197,0.29083 -0.572314,0.29083 -0.391269,0 -0.708497,-0.317228 -0.708497,-0.708497 0,-0.365783 0.277153,-0.666826 0.632906,-0.70453l0 0.144845 0.151182 0 0 -0.144845z"/>
  <path class="fil1" d="M2.14414 1.03115c0,-0.00642845 0.00123098,-0.0155468 0.00373853,-0.0273551 0.00250755,-0.0118083 0.00642845,-0.0234342 0.0118083,-0.0348777 0.00533424,-0.011398 0.0119451,-0.0212458 0.0198324,-0.0294523 0.00784179,-0.00825212 0.0167778,-0.0123554 0.026808,-0.0123554 0.00930073,0.00141335 0.0151821,0.004468 0.0176896,0.00911836 0.00250755,0.00465037 0.00410326,0.0094831 0.00483273,0.0144982 0.000729469,0.00496951 0.000547102,0.0103493 -0.000547102,0.0160483 -0.00104861,0.00574457 -0.00159571,0.0100302 -0.00159571,0.0129025 0,0.0135864 0.00519747,0.0244828 0.0155468,0.0326893 0.0103949,0.00825212 0.0232518,0.0146806 0.0386163,0.0193309 0.0153644,0.00465037 0.0337835,0.00729469 0.0552573,0.00802416 0.011398,0 0.0251667,-0.00123098 0.0412606,-0.00373853 0.0160939,-0.00250755 0.0314584,-0.00592694 0.0461389,-0.0102126 0.014635,-0.00428563 0.0269904,-0.00961987 0.036975,-0.0160939 0.0100302,-0.00642845 0.0143158,-0.0132216 0.0129025,-0.0203795 -0.00214282,-0.00496951 -0.0094831,-0.0108964 -0.0220209,-0.0176896 -0.0124922,-0.00679318 -0.0276742,-0.0132216 -0.0455462,-0.0192853 -0.017872,-0.00606371 -0.0368382,-0.0119906 -0.056853,-0.0176896 -0.0200148,-0.00574457 -0.0391634,-0.010942 -0.0574001,-0.0155468 -0.0182367,-0.00465037 -0.0419901,-0.00984783 -0.0713056,-0.0155924 -0.0243004,-0.00496951 -0.0531145,-0.0107141 -0.0863509,-0.0171425 -0.0332364,-0.00642845 -0.0682966,-0.0143158 -0.105089,-0.0236166 -0.0368382,-0.00925514 -0.0731293,-0.020334 -0.108873,-0.0332364 -0.035744,-0.0128569 -0.0681142,-0.028039 -0.097065,-0.0455918 -0.0289508,-0.0175073 -0.052385,-0.0377044 -0.070257,-0.0605915 -0.017872,-0.0228871 -0.026808,-0.0489656 -0.026808,-0.0782812 0,-0.0436314 0.0126745,-0.0832963 0.0380692,-0.11904 0.0253946,-0.0357896 0.0582664,-0.0674303 0.0986607,-0.0949222 0.0403944,-0.0275375 0.0849376,-0.0509717 0.133538,-0.070257 0.0486465,-0.0193309 0.0961987,-0.0354248 0.142657,-0.0482817 0.0464581,-0.0128569 0.0888585,-0.0219753 0.12711,-0.0273551 0.0382515,-0.00533424 0.06702,-0.00802416 0.0863053,-0.00802416 0.0329173,0.000729469 0.0622328,0.00519747 0.0879466,0.013404 0.0257594,0.00820653 0.0482817,0.0198324 0.0676127,0.0348322 0.0192853,0.0150453 0.0351969,0.0336468 0.047689,0.0558044 0.0125378,0.0221576 0.0187838,0.0486009 0.0187838,0.0793754 0,0.00784179 -0.00196045,0.0201972 -0.00588135,0.036975 -0.00396649,0.0168234 -0.0102126,0.0332364 -0.0187838,0.0493304 -0.00857126,0.0160939 -0.0192853,0.0302274 -0.0321878,0.0424004 -0.0128569,0.0121274 -0.026808,0.0182367 -0.0418077,0.0182367 -0.0107141,0 -0.0205619,-0.00287228 -0.0294979,-0.00861685 -0.008936,-0.00569898 -0.0173249,-0.0128569 -0.0252123,-0.0214282 -0.00784179,-0.00857126 -0.0141335,-0.0175073 -0.0187838,-0.026808 -0.00465037,-0.00930073 -0.00697555,-0.0171881 -0.00697555,-0.0236166 0,-0.00287228 0.00164131,-0.00875363 0.00483273,-0.0176896 0.00323702,-0.008936 0.00788739,-0.0205619 0.0139511,-0.0348777 0.00606371,-0.0142702 0.0094831,-0.026808 0.0102126,-0.0375221 0,-0.0149997 -0.00182367,-0.0258962 -0.00537984,-0.0326893 -0.00355616,-0.00679318 -0.0100302,-0.0123554 -0.0192853,-0.016641 -0.00930073,-0.00428563 -0.0261241,-0.00606371 -0.0504246,-0.00537984 -0.0514732,0.00428563 -0.0976121,0.0118083 -0.138371,0.0225224 -0.0407591,0.0107597 -0.0875819,0.0284493 -0.140514,0.0531145 -0.0528865,0.0246652 -0.0947398,0.0532512 -0.125469,0.0858038 -0.0307289,0.032507 -0.0461389,0.0623696 -0.0461389,0.0895423 0,0.017872 0.0139511,0.0378868 0.0418533,0.06009 0.0278566,0.0221576 0.0741779,0.0451815 0.138873,0.0691628 0.0647404,0.0239357 0.120317,0.0432666 0.166775,0.0579016 0.0465037,0.0146806 0.0919131,0.0296803 0.136228,0.0450447 0.0443153,0.0153644 0.0838434,0.0314584 0.118539,0.0482817 0.0346498,0.0167778 0.0627343,0.034513 0.0841625,0.0530689 0.0214737,0.0186015 0.0321878,0.038981 0.0321878,0.0611386 0,0.0236166 -0.00911836,0.0452271 -0.0273551,0.0649228 -0.0182367,0.0196501 -0.0421724,0.0361087 -0.0718527,0.0493304 -0.0296803,0.0132216 -0.0638286,0.0230695 -0.102445,0.0294979 -0.0386163,0.00642845 -0.0779164,0.00857126 -0.117946,0.00642845 -0.0500598,-0.00360175 -0.088129,-0.0180544 -0.114253,-0.043449 -0.0260785,-0.0253946 -0.0391178,-0.0598621 -0.0391178,-0.103493zm1.02208 -0.314264c0,0.00642845 -0.00515188,0.0123554 -0.0155468,0.0176896 -0.0103493,0.00537984 -0.0237533,0.0107141 -0.040212,0.0160939 -0.0164586,0.00537984 -0.0350145,0.0103949 -0.0557588,0.0149997 -0.0207443,0.00465037 -0.0416709,0.0094831 -0.0627343,0.0144982 -0.021109,0.0050151 -0.0411238,0.00966547 -0.06009,0.0139511 -0.0189206,0.00428563 -0.034513,0.00820653 -0.0466404,0.0118083 -0.00145894,0.00428563 -0.00268992,0.0112612 -0.00378412,0.0208811 -0.00104861,0.00966547 -0.00159571,0.019878 -0.00159571,0.0305921 0,0.0107141 0.000182367,0.0216105 0.000547102,0.0326893 0.000364735,0.0110788 0.00159571,0.0209266 0.00373853,0.0294979 0.0050151,0.0164586 0.00930073,0.0321878 0.0129025,0.0471875 0.00355616,0.0129025 0.00642845,0.0257594 0.00857126,0.0386163 0.00214282,0.0129025 0.00355616,0.0225224 0.00428563,0.0289508 0.000729469,0.0129025 0.000547102,0.0248475 -0.000547102,0.0359719 -0.00104861,0.0110788 -0.00305465,0.0221576 -0.00588135,0.0332364 -0.00287228,0.0110788 -0.00715792,0.0203795 -0.0129025,0.0278566 -0.00569898,0.00752265 -0.0132216,0.0112612 -0.0225224,0.0112612 -0.0128569,0 -0.0258962,-0.00355616 -0.0391178,-0.0107141 -0.0132216,-0.00715792 -0.025577,-0.0196501 -0.0370206,-0.0375221 -0.00715792,-0.0114435 -0.0118083,-0.0239813 -0.0139511,-0.0375221 -0.00214282,-0.0135864 -0.00373853,-0.0284493 -0.00483273,-0.0445432 -0.00104861,-0.0160939 -0.00264433,-0.0334188 -0.00478714,-0.0520203 -0.00218841,-0.0186015 -0.00788739,-0.0382515 -0.0171881,-0.0589958 -0.0050151,-0.0128569 -0.0119906,-0.0232062 -0.0209266,-0.0310936 -0.008936,-0.00784179 -0.0175073,-0.0157292 -0.0257138,-0.023571 -0.00825212,-0.00788739 -0.0155468,-0.0164586 -0.0219753,-0.0257594 -0.00647404,-0.00930073 -0.00966547,-0.0200148 -0.00966547,-0.0321878 0,-0.00857126 0.00410326,-0.0175073 0.0123098,-0.026808 0.00825212,-0.00930073 0.016641,-0.0180544 0.0252123,-0.0262609 0.00857126,-0.00825212 0.017872,-0.0155468 0.0279022,-0.0219753 0.00998461,-0.00647404 0.0192853,-0.0111244 0.0278566,-0.0139511 0.00218841,-0.0236166 0.00341939,-0.0496951 0.00378412,-0.0783268 0.000364735,-0.0285861 0.000866245,-0.0579016 0.00159571,-0.0879466 0,-0.00428563 -0.000182367,-0.010167 -0.000547102,-0.0176896 -0.000319143,-0.00752265 -0.000866245,-0.0155468 -0.00159571,-0.0241181 -0.000729469,-0.00857126 -0.00104861,-0.0170058 -0.00104861,-0.0252123 0,-0.00820653 0.00104861,-0.0155468 0.00319143,-0.0219753 0.00214282,-0.00428563 0.00592694,-0.00911836 0.0112612,-0.0144982 0.00537984,-0.00533424 0.0114435,-0.010167 0.0182367,-0.0144526 0.00679318,-0.00433122 0.0143158,-0.00788739 0.0225224,-0.0107597 0.00820653,-0.00282669 0.0162763,-0.00428563 0.0241181,-0.00428563 0.0193309,0 0.0327349,0.00519747 0.0402576,0.0155468 0.00747706,0.0103949 0.0121274,0.0230695 0.0139055,0.0380692 0.00182367,0.0150453 0.00214282,0.0302274 0.0010942,0.0455918 -0.0010942,0.0153644 -0.00196045,0.0269904 -0.00268992,0.0348777 -0.00287228,0.0307289 -0.004468,0.0534336 -0.00483273,0.0681142 -0.000364735,0.014635 -0.000547102,0.0284037 -0.000547102,0.0412606 0,0.0129025 0,0.0236166 0,0.0321878 0.0579472,-0.00287228 0.0985239,-0.00465037 0.121776,-0.00533424 0.0232062,-0.000729469 0.0452271,-0.000729469 0.0659258,0 0.0207443,0.000683877 0.0357896,0.0039209 0.0450447,0.00961987 0.00930073,0.0050151 0.0179176,0.0103949 0.0257594,0.0160939 0.00788739,0.00574457 0.012173,0.0125378 0.0128569,0.0203795zm0.462301 0.1448c0,0.0264433 -0.00574457,0.0516555 -0.0171425,0.0755912 -0.0114435,0.0239813 -0.0263065,0.0463213 -0.0445432,0.0670656 -0.0182367,0.0207443 -0.0391178,0.0394825 -0.0627343,0.0563059 -0.0236166,0.0167778 -0.0475523,0.0310936 -0.0718527,0.0429019 -0.0243004,0.0118083 -0.0480994,0.0209266 -0.0713512,0.0273551 -0.0232062,0.00642845 -0.0434034,0.00961987 -0.0605915,0.00961987 -0.023571,0 -0.0450447,-0.0039209 -0.0643301,-0.0117627 -0.0193309,-0.00788739 -0.0362911,-0.0187838 -0.0509717,-0.0327349 -0.014635,-0.0139511 -0.0260785,-0.0301818 -0.0342851,-0.0487833 -0.00825212,-0.0186015 -0.0123554,-0.0382515 -0.0123554,-0.0589958 0,-0.0200148 0.0039209,-0.0419901 0.0118083,-0.0659714 0.00784179,-0.0239357 0.0175073,-0.0471875 0.0289508,-0.0697099 0.0114435,-0.0225224 0.0239357,-0.043449 0.0375221,-0.0627343 0.0135864,-0.0193309 0.0264888,-0.0343306 0.0386163,-0.0450447 -0.0114435,-0.00287228 -0.0198324,-0.00770502 -0.0252123,-0.0144982 -0.00533424,-0.00679318 -0.00875363,-0.013404 -0.010167,-0.0198324 -0.00141335,-0.0193309 0.0241181,-0.0318231 0.0766854,-0.0375221 0.0525674,-0.00574457 0.0984783,-0.00465037 0.137824,0.00319143 0.0393457,0.00788739 0.0713056,0.0187838 0.0959708,0.0327349 0.0246652,0.0139055 0.0436314,0.0289508 0.056853,0.0450447 0.0132216,0.0160939 0.0234342,0.0330541 0.0305921,0.0509261 0.00715792,0.017872 0.0107141,0.0368382 0.0107141,0.056853zm-0.364689 0.121183c0,0.00287228 0,0.00642845 0,0.0107597 0,0.00428563 0.0010942,0.0083889 0.00323702,0.0123098 0.00214282,0.0039209 0.00569898,0.00715792 0.0107141,0.00966547 0.0050151,0.00250755 0.0125378,0.00300906 0.0225224,0.00159571 0.0150453,0 0.0329173,-0.00465037 0.0536616,-0.0139511 0.0206987,-0.00930073 0.0423548,-0.0232062 0.0648772,-0.0418077 0.0225224,-0.0186015 0.0407591,-0.0380692 0.0547102,-0.0584487 0.0139055,-0.0203795 0.0208811,-0.0416709 0.0208811,-0.0638286 0,-0.0143158 -0.00642845,-0.026808 -0.0192853,-0.0375221 -0.0128569,-0.0107597 -0.0282669,-0.0200604 -0.0461389,-0.0279022 -0.017872,-0.00788739 -0.0361087,-0.0137687 -0.0546646,-0.0176896 -0.0186015,-0.00396649 -0.0339659,-0.0055622 -0.0461389,-0.00483273 0.00287228,0.0121274 0.00159571,0.026808 -0.00373853,0.0439505 -0.00537984,0.0171881 -0.0123554,0.0356072 -0.0209266,0.0552573 -0.00857126,0.0196501 -0.0164586,0.040212 -0.0236166,0.0616857 -0.00715792,0.0214282 -0.0124922,0.0450447 -0.0160939,0.0707585zm0.893463 -0.121183c0,0.0264433 -0.00574457,0.0516555 -0.0171425,0.0755912 -0.0114435,0.0239813 -0.0263065,0.0463213 -0.0445432,0.0670656 -0.0182367,0.0207443 -0.0391178,0.0394825 -0.0627343,0.0563059 -0.0236166,0.0167778 -0.0475523,0.0310936 -0.0718527,0.0429019 -0.0243004,0.0118083 -0.0480994,0.0209266 -0.0713512,0.0273551 -0.0232062,0.00642845 -0.0434034,0.00961987 -0.0605915,0.00961987 -0.023571,0 -0.0450447,-0.0039209 -0.0643301,-0.0117627 -0.0193309,-0.00788739 -0.0362911,-0.0187838 -0.0509717,-0.0327349 -0.014635,-0.0139511 -0.0260785,-0.0301818 -0.0342851,-0.0487833 -0.00825212,-0.0186015 -0.0123554,-0.0382515 -0.0123554,-0.0589958 0,-0.0200148 0.0039209,-0.0419901 0.0118083,-0.0659714 0.00784179,-0.0239357 0.0175073,-0.0471875 0.0289508,-0.0697099 0.0114435,-0.0225224 0.0239357,-0.043449 0.0375221,-0.0627343 0.0135864,-0.0193309 0.0264888,-0.0343306 0.0386163,-0.0450447 -0.0114435,-0.00287228 -0.0198324,-0.00770502 -0.0252123,-0.0144982 -0.00533424,-0.00679318 -0.00875363,-0.013404 -0.010167,-0.0198324 -0.00141335,-0.0193309 0.0241181,-0.0318231 0.0766854,-0.0375221 0.0525674,-0.00574457 0.0984783,-0.00465037 0.137824,0.00319143 0.0393457,0.00788739 0.0713056,0.0187838 0.0959708,0.0327349 0.0246652,0.0139055 0.0436314,0.0289508 0.056853,0.0450447 0.0132216,0.0160939 0.0234342,0.0330541 0.0305921,0.0509261 0.00715792,0.017872 0.0107141,0.0368382 0.0107141,0.056853zm-0.364689 0.121183c0,0.00287228 0,0.00642845 0,0.0107597 0,0.00428563 0.0010942,0.0083889 0.00323702,0.0123098 0.00214282,0.0039209 0.00569898,0.00715792 0.0107141,0.00966547 0.0050151,0.00250755 0.0125378,0.00300906 0.0225224,0.00159571 0.0150453,0 0.0329173,-0.00465037 0.0536616,-0.0139511 0.0206987,-0.00930073 0.0423548,-0.0232062 0.0648772,-0.0418077 0.0225224,-0.0186015 0.0407591,-0.0380692 0.0547102,-0.0584487 0.0139055,-0.0203795 0.0208811,-0.0416709 0.0208811,-0.0638286 0,-0.0143158 -0.00642845,-0.026808 -0.0192853,-0.0375221 -0.0128569,-0.0107597 -0.0282669,-0.0200604 -0.0461389,-0.0279022 -0.017872,-0.00788739 -0.0361087,-0.0137687 -0.0546646,-0.0176896 -0.0186015,-0.00396649 -0.0339659,-0.0055622 -0.0461389,-0.00483273 0.00287228,0.0121274 0.00159571,0.026808 -0.00373853,0.0439505 -0.00537984,0.0171881 -0.0123554,0.0356072 -0.0209266,0.0552573 -0.00857126,0.0196501 -0.0164586,0.040212 -0.0236166,0.0616857 -0.00715792,0.0214282 -0.0124922,0.0450447 -0.0160939,0.0707585zm0.791565 -0.127612c0.00784179,-0.0050151 0.0155468,-0.0055622 0.0230695,-0.00159571 0.00747706,0.0039209 0.0121274,0.00907277 0.0139055,0.0155468 0.00182367,0.00642845 0.00250755,0.0117627 0.00214282,0.0160939 -0.000319143,0.00428563 -0.00050151,0.00674759 -0.00050151,0.00747706 -0.00642845,0.0243004 -0.0159115,0.0495127 -0.0284493,0.0756368 -0.0124922,0.0260785 -0.0289508,0.0522026 -0.0493304,0.0782812 -0.0203795,0.0260785 -0.0418077,0.0482817 -0.0643301,0.0665185 -0.0225224,0.0181911 -0.0430843,0.0276742 -0.0616857,0.0284037 -0.0350601,0.00141335 -0.0632815,-0.0094831 -0.0847552,-0.0327349 -0.0214282,-0.0232062 -0.0380692,-0.0509261 -0.0498319,-0.0831139 -0.0118083,-0.0321422 -0.0196957,-0.0641477 -0.0236166,-0.0959708 -0.0039209,-0.0318231 -0.00588135,-0.0559412 -0.00588135,-0.0723998 0.00141335,-0.0636462 0.00569898,-0.121046 0.0128569,-0.172155 0.00715792,-0.0511084 0.014635,-0.0979768 0.0225224,-0.140514 0.00784179,-0.0425372 0.0162763,-0.0817005 0.0252123,-0.117445 0.008936,-0.035744 0.0187382,-0.0656066 0.0294979,-0.0895423 0.0107141,-0.0239357 0.0228871,-0.0377044 0.0364735,-0.0413062 0.00925514,-0.00282669 0.0192853,-0.00300906 0.0299994,-0.00050151 0.0107141,0.00246196 0.0207443,0.00624608 0.030045,0.0112612 0.00930073,0.00496951 0.016641,0.0110788 0.0219753,0.0181911 0.00537984,0.00715792 0.00770502,0.0135864 0.00697555,0.0193309 -0.000729469,0.00642845 -0.00373853,0.0200148 -0.00911836,0.0407591 -0.00533424,0.0207443 -0.0119906,0.0466404 -0.0198324,0.0777341 -0.00788739,0.0311392 -0.0153644,0.0643757 -0.0225224,0.0997549 -0.00715792,0.0354248 -0.0141335,0.0720351 -0.0209266,0.109967 -0.00679318,0.0378868 -0.0121274,0.0752265 -0.0160939,0.112065 -0.0039209,0.0368382 -0.00533424,0.0704394 -0.00428563,0.100804 0.0010942,0.0304097 0.00537984,0.0564883 0.0129025,0.0783268 0.00747706,0.0217929 0.019103,0.0366102 0.0348322,0.0444976 0.00715792,0.00428563 0.0153644,0.00355616 0.0246652,-0.00214282 0.00930073,-0.00574457 0.0195133,-0.0139511 0.0305921,-0.0246652 0.0110788,-0.0107141 0.0269904,-0.0291332 0.047689,-0.0552573 0.0207443,-0.0260785 0.034513,-0.0439505 0.0413062,-0.053616 0.00679318,-0.00966547 0.0116259,-0.0155468 0.0144982,-0.0176896zm0.344309 0.175893c0,-0.00642845 0.00123098,-0.0155468 0.00373853,-0.0273551 0.00250755,-0.0118083 0.00642845,-0.0234342 0.0118083,-0.0348777 0.00533424,-0.011398 0.0119451,-0.0212458 0.0198324,-0.0294523 0.00784179,-0.00825212 0.0167778,-0.0123554 0.026808,-0.0123554 0.00930073,0.00141335 0.0151821,0.004468 0.0176896,0.00911836 0.00250755,0.00465037 0.00410326,0.0094831 0.00483273,0.0144982 0.000729469,0.00496951 0.000547102,0.0103493 -0.000547102,0.0160483 -0.00104861,0.00574457 -0.00159571,0.0100302 -0.00159571,0.0129025 0,0.0135864 0.00519747,0.0244828 0.0155468,0.0326893 0.0103949,0.00825212 0.0232518,0.0146806 0.0386163,0.0193309 0.0153644,0.00465037 0.0337835,0.00729469 0.0552573,0.00802416 0.011398,0 0.0251667,-0.00123098 0.0412606,-0.00373853 0.0160939,-0.00250755 0.0314584,-0.00592694 0.0461389,-0.0102126 0.014635,-0.00428563 0.0269904,-0.00961987 0.036975,-0.0160939 0.0100302,-0.00642845 0.0143158,-0.0132216 0.0129025,-0.0203795 -0.00214282,-0.00496951 -0.0094831,-0.0108964 -0.0220209,-0.0176896 -0.0124922,-0.00679318 -0.0276742,-0.0132216 -0.0455462,-0.0192853 -0.017872,-0.00606371 -0.0368382,-0.0119906 -0.056853,-0.0176896 -0.0200148,-0.00574457 -0.0391634,-0.010942 -0.0574001,-0.0155468 -0.0182367,-0.00465037 -0.0419901,-0.00984783 -0.0713056,-0.0155924 -0.0243004,-0.00496951 -0.0531145,-0.0107141 -0.0863509,-0.0171425 -0.0332364,-0.00642845 -0.0682966,-0.0143158 -0.105089,-0.0236166 -0.0368382,-0.00925514 -0.0731293,-0.020334 -0.108873,-0.0332364 -0.035744,-0.0128569 -0.0681142,-0.028039 -0.097065,-0.0455918 -0.0289508,-0.0175073 -0.052385,-0.0377044 -0.070257,-0.0605915 -0.017872,-0.0228871 -0.026808,-0.0489656 -0.026808,-0.0782812 0,-0.0436314 0.0126745,-0.0832963 0.0380692,-0.11904 0.0253946,-0.0357896 0.0582664,-0.0674303 0.0986607,-0.0949222 0.0403944,-0.0275375 0.0849376,-0.0509717 0.133538,-0.070257 0.0486465,-0.0193309 0.0961987,-0.0354248 0.142657,-0.0482817 0.0464581,-0.0128569 0.0888585,-0.0219753 0.12711,-0.0273551 0.0382515,-0.00533424 0.06702,-0.00802416 0.0863053,-0.00802416 0.0329173,0.000729469 0.0622328,0.00519747 0.0879466,0.013404 0.0257594,0.00820653 0.0482817,0.0198324 0.0676127,0.0348322 0.0192853,0.0150453 0.0351969,0.0336468 0.047689,0.0558044 0.0125378,0.0221576 0.0187838,0.0486009 0.0187838,0.0793754 0,0.00784179 -0.00196045,0.0201972 -0.00588135,0.036975 -0.00396649,0.0168234 -0.0102126,0.0332364 -0.0187838,0.0493304 -0.00857126,0.0160939 -0.0192853,0.0302274 -0.0321878,0.0424004 -0.0128569,0.0121274 -0.026808,0.0182367 -0.0418077,0.0182367 -0.0107141,0 -0.0205619,-0.00287228 -0.0294979,-0.00861685 -0.008936,-0.00569898 -0.0173249,-0.0128569 -0.0252123,-0.0214282 -0.00784179,-0.00857126 -0.0141335,-0.0175073 -0.0187838,-0.026808 -0.00465037,-0.00930073 -0.00697555,-0.0171881 -0.00697555,-0.0236166 0,-0.00287228 0.00164131,-0.00875363 0.00483273,-0.0176896 0.00323702,-0.008936 0.00788739,-0.0205619 0.0139511,-0.0348777 0.00606371,-0.0142702 0.0094831,-0.026808 0.0102126,-0.0375221 0,-0.0149997 -0.00182367,-0.0258962 -0.00537984,-0.0326893 -0.00355616,-0.00679318 -0.0100302,-0.0123554 -0.0192853,-0.016641 -0.00930073,-0.00428563 -0.0261241,-0.00606371 -0.0504246,-0.00537984 -0.0514732,0.00428563 -0.0976121,0.0118083 -0.138371,0.0225224 -0.0407591,0.0107597 -0.0875819,0.0284493 -0.140514,0.0531145 -0.0528865,0.0246652 -0.0947398,0.0532512 -0.125469,0.0858038 -0.0307289,0.032507 -0.0461389,0.0623696 -0.0461389,0.0895423 0,0.017872 0.0139511,0.0378868 0.0418533,0.06009 0.0278566,0.0221576 0.0741779,0.0451815 0.138873,0.0691628 0.0647404,0.0239357 0.120317,0.0432666 0.166775,0.0579016 0.0465037,0.0146806 0.0919131,0.0296803 0.136228,0.0450447 0.0443153,0.0153644 0.0838434,0.0314584 0.118539,0.0482817 0.0346498,0.0167778 0.0627343,0.034513 0.0841625,0.0530689 0.0214737,0.0186015 0.0321878,0.038981 0.0321878,0.0611386 0,0.0236166 -0.00911836,0.0452271 -0.0273551,0.0649228 -0.0182367,0.0196501 -0.0421724,0.0361087 -0.0718527,0.0493304 -0.0296803,0.0132216 -0.0638286,0.0230695 -0.102445,0.0294979 -0.0386163,0.00642845 -0.0779164,0.00857126 -0.117946,0.00642845 -0.0500598,-0.00360175 -0.088129,-0.0180544 -0.114253,-0.043449 -0.0260785,-0.0253946 -0.0391178,-0.0598621 -0.0391178,-0.103493z"/>
  <path class="fil2" d="M0.58043 1.07446c0,-0.00688437 0.00132216,-0.0166866 0.00401208,-0.0293611 0.00268992,-0.0126745 0.00692996,-0.0251211 0.0126745,-0.0374309 0.00574457,-0.0122642 0.0128569,-0.0228415 0.0212914,-0.0316407 0.00843449,-0.00884481 0.0180544,-0.0132672 0.028814,-0.0132672 0.00998461,0.00155012 0.0162763,0.00483273 0.0189662,0.00980224 0.00268992,0.00496951 0.00442241,0.010167 0.00519747,0.0155468 0.000775061,0.00537984 0.000592694,0.0111244 -0.000592694,0.0172793 -0.0011398,0.0061549 -0.0016869,0.0107597 -0.0016869,0.0138143 0,0.0145894 0.0055622,0.0263065 0.0166866,0.0351057 0.0111244,0.00884481 0.0249387,0.0157748 0.041443,0.0207443 0.0165042,0.00496951 0.0362911,0.00788739 0.059315,0.00861685 0.0122642,0 0.027036,-0.00132216 0.0443153,-0.00401208 0.0172793,-0.00268992 0.0337835,-0.00633726 0.0495127,-0.010942 0.0157748,-0.00460477 0.0289964,-0.0103493 0.0397561,-0.0172793 0.0107597,-0.00688437 0.0153644,-0.0141791 0.0138143,-0.0218841 -0.00232518,-0.00537984 -0.010167,-0.0117171 -0.0236166,-0.0189662 -0.0134496,-0.00729469 -0.0297259,-0.0142246 -0.04892,-0.0207443 -0.0191942,-0.00651963 -0.0395737,-0.0128569 -0.0610475,-0.0190118 -0.0215193,-0.0061549 -0.0420357,-0.0117171 -0.0615946,-0.0166866 -0.0196045,-0.0050151 -0.0451359,-0.0105773 -0.0765943,-0.0166866 -0.0261241,-0.00537984 -0.0569898,-0.0115347 -0.0926882,-0.0184647 -0.0356984,-0.00688437 -0.0733117,-0.0153189 -0.112885,-0.0253035 -0.0395281,-0.00998461 -0.0784635,-0.0218841 -0.116852,-0.0356984 -0.0383883,-0.0138143 -0.0731293,-0.0301362 -0.104223,-0.0489656 -0.0310936,-0.0187838 -0.0562603,-0.0404855 -0.0754545,-0.0650595 -0.0191486,-0.024574 -0.0287684,-0.0525674 -0.0287684,-0.0840713 0,-0.0468228 0.013632,-0.0894056 0.0408959,-0.127794 0.0272183,-0.0383883 0.062552,-0.0723542 0.10591,-0.101943 0.0434034,-0.0295435 0.0911836,-0.0546646 0.143386,-0.0754089 0.0522026,-0.0207443 0.103265,-0.037978 0.153143,-0.0518379 0.049923,-0.0138143 0.0954237,-0.023571 0.136456,-0.0293611 0.0410782,-0.00574457 0.0719895,-0.00861685 0.0927338,-0.00861685 0.0352881,0.000775061 0.066792,0.0055622 0.0944207,0.014407 0.0276286,0.00879922 0.0517923,0.0212914 0.0725366,0.0374309 0.0207443,0.0160939 0.0377956,0.0360631 0.0512452,0.0598621 0.0134496,0.0237989 0.0201516,0.0522026 0.0201516,0.0852111 0,0.00843449 -0.00209722,0.0217017 -0.00633726,0.0397105 -0.00419445,0.0180544 -0.010942,0.0356984 -0.0201516,0.0529777 -0.00920955,0.0172793 -0.0206987,0.0324614 -0.0345586,0.0455006 -0.0138143,0.0130393 -0.0287684,0.0195589 -0.0449079,0.0195589 -0.0114891,0 -0.0220664,-0.00305465 -0.0316407,-0.00920955 -0.00961987,-0.0061093 -0.0186471,-0.0138143 -0.0270815,-0.0230239 -0.00843449,-0.00920955 -0.0151365,-0.0187838 -0.0201516,-0.0287684 -0.00496951,-0.00998461 -0.00747706,-0.0184191 -0.00747706,-0.0253491 0,-0.00305465 0.00173249,-0.00939192 0.00519747,-0.0190118 0.00341939,-0.00957428 0.00843449,-0.0220664 0.0149541,-0.0374309 0.00651963,-0.0153189 0.010167,-0.0287684 0.010942,-0.0403032 0,-0.0160939 -0.00191486,-0.027811 -0.00574457,-0.0351057 -0.00382971,-0.00729469 -0.0107597,-0.0132216 -0.0207443,-0.0178264 -0.00998461,-0.00465037 -0.028039,-0.00656522 -0.0541175,-0.00579016 -0.0552573,0.00460477 -0.104816,0.0126745 -0.148538,0.0242093 -0.0437682,0.0114891 -0.0940559,0.0305009 -0.150863,0.0569898 -0.0568074,0.0264888 -0.101715,0.0571721 -0.134724,0.0921411 -0.0330085,0.0349233 -0.0495127,0.0669744 -0.0495127,0.0961532 0,0.0191942 0.0149541,0.0406679 0.0449079,0.0644668 0.0299082,0.0237989 0.0796489,0.0485553 0.149131,0.0742691 0.0694363,0.0257138 0.129162,0.0464581 0.179039,0.0621872 0.049923,0.0157292 0.0986607,0.0318687 0.146259,0.0483729 0.0475979,0.0165042 0.0899983,0.0337835 0.127247,0.0518379 0.0372485,0.0180088 0.0673847,0.0370206 0.0904086,0.0569898 0.0230239,0.0199692 0.034513,0.0418533 0.034513,0.0656522 0,0.0253035 -0.00975665,0.0485553 -0.0293611,0.0696643 -0.0195589,0.021109 -0.0452727,0.038753 -0.0771414,0.0529777 -0.0318687,0.0141791 -0.0685245,0.0247564 -0.109967,0.0316407 -0.041443,0.00692996 -0.083661,0.00920955 -0.126654,0.00692996 -0.0537528,-0.0038753 -0.0946486,-0.0194221 -0.122642,-0.0466404 -0.028039,-0.0272639 -0.0420357,-0.0643301 -0.0420357,-0.111153z"/>
 </g>
</svg>
