<?xml version="1.0" encoding="UTF-8"?>
<svg width="3.0993mm" height="3.0993mm" clip-rule="evenodd" fill-rule="evenodd" image-rendering="optimizeQuality" shape-rendering="geometricPrecision" text-rendering="geometricPrecision" version="1.1" viewBox="0 0 1.413 1.413" xml:space="preserve" xmlns="http://www.w3.org/2000/svg" xmlns:cc="http://creativecommons.org/ns#" xmlns:dc="http://purl.org/dc/elements/1.1/" xmlns:rdf="http://www.w3.org/1999/02/22-rdf-syntax-ns#"><metadata><rdf:RDF><cc:Work rdf:about=""><dc:format>image/svg+xml</dc:format><dc:type rdf:resource="http://purl.org/dc/dcmitype/StillImage"/><dc:title/></cc:Work></rdf:RDF></metadata>
 <defs>
  <style type="text/css">
   <![CDATA[
    .fil0 {fill:#FEFEFE}
    .fil2 {fill:#E5097F;fill-rule:nonzero}
    .fil1 {fill:#FEFEFE;fill-rule:nonzero}
   ]]>
  </style>
 
  
  
  
  
 </defs>
 <path class="fil0" d="m0.78409 5e-7c0.074497 0.0078874 0.14553 0.027401 0.21123 0.056534l-0.072445 0.12551 0.13089 0.075591 0.072445-0.12542c0.059133 0.043267 0.11134 0.095469 0.1546 0.1546l-0.12542 0.072445 0.075591 0.13089 0.12551-0.072445c0.029179 0.065698 0.048647 0.13673 0.056534 0.21123h-0.14484v0.15118h0.14484c-0.00789 0.074451-0.027355 0.14544-0.056534 0.21123l-0.12551-0.072445-0.075591 0.13089 0.12542 0.0724c-0.12889 0.1763-0.3372 0.29083-0.57231 0.29083-0.39127 0-0.7085-0.31723-0.7085-0.7085 0-0.36578 0.27715-0.66683 0.63291-0.70453v0.14484h0.15118z"/><path class="fil1" d="m2.1441 1.0312c0-0.00643 0.00123-0.015547 0.00374-0.027355 0.00251-0.011808 0.00643-0.023434 0.011808-0.034878 0.00533-0.011398 0.011945-0.021246 0.019832-0.029452 0.00784-0.008252 0.016778-0.012355 0.026808-0.012355 0.0093 0.001413 0.015182 0.004468 0.01769 0.009118 0.00251 0.00465 0.0041 0.009483 0.00483 0.014498 7.294e-4 0.00497 5.471e-4 0.010349-5.471e-4 0.016048-0.00105 0.005745-0.0016 0.01003-0.0016 0.012902 0 0.013586 0.0052 0.024483 0.015547 0.032689 0.010395 0.00825 0.023252 0.014681 0.038616 0.019331s0.033783 0.00729 0.055257 0.00802c0.011398 0 0.025167-0.00123 0.041261-0.00374s0.031458-0.00593 0.046139-0.010213c0.014635-0.00429 0.02699-0.00962 0.036975-0.016094 0.01003-0.00643 0.014316-0.013222 0.012903-0.02038-0.00214-0.00497-0.00948-0.010896-0.022021-0.01769-0.012492-0.006793-0.027674-0.013222-0.045546-0.019285-0.017872-0.006064-0.036838-0.011991-0.056853-0.01769-0.020015-0.005745-0.039163-0.010942-0.0574-0.015547-0.018237-0.00465-0.04199-0.009848-0.071306-0.015592-0.0243-0.00497-0.053114-0.010714-0.086351-0.017142-0.033236-0.006428-0.068297-0.014316-0.10509-0.023617-0.036838-0.009255-0.073129-0.020334-0.10887-0.033236-0.035744-0.012857-0.068114-0.028039-0.097065-0.045592-0.028951-0.017507-0.052385-0.037704-0.070257-0.060592s-0.026808-0.048966-0.026808-0.078281c0-0.043631 0.012674-0.083296 0.038069-0.11904 0.025395-0.03579 0.058266-0.06743 0.098661-0.094922 0.040394-0.027538 0.084938-0.050972 0.13354-0.070257 0.048647-0.019331 0.096199-0.035425 0.14266-0.048282s0.088859-0.021975 0.12711-0.027355c0.038251-0.005334 0.06702-0.008024 0.086305-0.008024 0.032917 7.2947e-4 0.062233 0.005197 0.087947 0.013404 0.025759 0.008207 0.048282 0.019832 0.067613 0.034832 0.019285 0.015045 0.035197 0.033647 0.047689 0.055804 0.012538 0.022158 0.018784 0.048601 0.018784 0.079375 0 0.007842-0.00196 0.020197-0.00588 0.036975-0.00397 0.016823-0.010213 0.033236-0.018784 0.04933-0.00857 0.016094-0.019285 0.030227-0.032188 0.0424-0.012857 0.012127-0.026808 0.018237-0.041808 0.018237-0.010714 0-0.020562-0.002872-0.029498-0.008617-0.00894-0.005699-0.017325-0.012857-0.025212-0.021428-0.00784-0.008571-0.014133-0.017507-0.018784-0.026808-0.00465-0.009301-0.00698-0.017188-0.00698-0.023617 0-0.002872 0.00164-0.008754 0.00483-0.01769 0.00324-0.008936 0.00789-0.020562 0.013951-0.034878 0.00606-0.01427 0.00948-0.026808 0.010213-0.037522 0-0.015-0.00182-0.025896-0.00538-0.032689-0.00356-0.006793-0.01003-0.012355-0.019285-0.016641-0.0093-0.004286-0.026124-0.006064-0.050425-0.00538-0.051473 0.004286-0.097612 0.011808-0.13837 0.022522-0.040759 0.01076-0.087582 0.028449-0.14051 0.053114-0.052887 0.024665-0.09474 0.053251-0.12547 0.085804-0.030729 0.032507-0.046139 0.06237-0.046139 0.089542 0 0.017872 0.013951 0.037887 0.041853 0.06009 0.027857 0.022158 0.074178 0.045182 0.13887 0.069163 0.06474 0.023936 0.12032 0.043267 0.16678 0.057902 0.046504 0.014681 0.091913 0.02968 0.13623 0.045045s0.083843 0.031458 0.11854 0.048282c0.03465 0.016778 0.062734 0.034513 0.084163 0.053069 0.021474 0.018602 0.032188 0.038981 0.032188 0.061139 0 0.023617-0.00912 0.045227-0.027355 0.064923-0.018237 0.01965-0.042172 0.036109-0.071853 0.04933-0.02968 0.013222-0.063829 0.02307-0.10244 0.029498-0.038616 0.00643-0.077916 0.00857-0.11795 0.00643-0.05006-0.0036-0.088129-0.018054-0.11425-0.043449-0.026079-0.025395-0.039118-0.059862-0.039118-0.10349zm1.0221-0.31426c0 0.006428-0.00515 0.012355-0.015547 0.01769-0.010349 0.00538-0.023753 0.010714-0.040212 0.016094-0.016459 0.00538-0.035014 0.010395-0.055759 0.015-0.020744 0.00465-0.041671 0.009483-0.062734 0.014498-0.021109 0.005015-0.041124 0.009665-0.06009 0.013951-0.018921 0.004286-0.034513 0.008207-0.04664 0.011808-0.00146 0.004286-0.00269 0.011261-0.00378 0.020881-0.00105 0.009665-0.0016 0.019878-0.0016 0.030592s1.823e-4 0.02161 5.471e-4 0.032689c3.647e-4 0.011079 0.0016 0.020927 0.00374 0.029498 0.00502 0.016459 0.0093 0.032188 0.012903 0.047188 0.00356 0.012902 0.00643 0.025759 0.00857 0.038616 0.00214 0.012903 0.00356 0.022522 0.00429 0.028951 7.295e-4 0.012903 5.471e-4 0.024847-5.471e-4 0.035972-0.00105 0.011079-0.00305 0.022158-0.00588 0.033236-0.00287 0.011079-0.00716 0.020379-0.012903 0.027857-0.0057 0.00752-0.013222 0.011261-0.022522 0.011261-0.012857 0-0.025896-0.00356-0.039118-0.010714-0.013222-0.00716-0.025577-0.01965-0.037021-0.037522-0.00716-0.011443-0.011808-0.023981-0.013951-0.037522-0.00214-0.013586-0.00374-0.028449-0.00483-0.044543-0.0010573-0.016094-0.002653-0.033419-0.0047958-0.052021-0.0021884-0.018602-0.0078874-0.038252-0.017188-0.058996-0.0050151-0.012857-0.011991-0.023206-0.020927-0.031094-0.00894-0.007842-0.017507-0.015729-0.025714-0.023571-0.00825-0.007887-0.015547-0.016459-0.021975-0.025759-0.00647-0.009301-0.00967-0.020015-0.00967-0.032188 0-0.008571 0.0041-0.017507 0.01231-0.026808 0.00825-0.009301 0.016641-0.018054 0.025212-0.026261 0.00857-0.008252 0.017872-0.015547 0.027902-0.021975 0.00998-0.006474 0.019285-0.011124 0.027857-0.013951 0.00219-0.023617 0.00342-0.049695 0.00378-0.078327 3.648e-4 -0.028586 8.663e-4 -0.057902 0.0016-0.087947 0-0.004286-1.823e-4 -0.010167-5.471e-4 -0.01769-3.191e-4 -0.007523-8.662e-4 -0.015547-0.0016-0.024118-7.295e-4 -0.008571-0.00105-0.017006-0.00105-0.025212 0-0.008207 0.00105-0.015547 0.00319-0.021975 0.00214-0.004286 0.00593-0.009118 0.011261-0.014498 0.00538-0.005334 0.011443-0.010167 0.018237-0.014453 0.00679-0.004331 0.014316-0.007887 0.022522-0.01076 0.00821-0.002827 0.016276-0.004286 0.024118-0.004286 0.019331 0 0.032735 0.005197 0.040258 0.015547 0.00748 0.010395 0.012127 0.02307 0.013906 0.038069 0.00182 0.015045 0.00214 0.030227 0.00109 0.045592-0.00109 0.015364-0.00196 0.02699-0.00269 0.034878-0.00287 0.030729-0.00447 0.053434-0.00483 0.068114-3.647e-4 0.014635-5.471e-4 0.028404-5.471e-4 0.041261v0.032188c0.057947-0.002872 0.098524-0.00465 0.12178-0.005334 0.023206-7.2947e-4 0.045227-7.2947e-4 0.065926 0 0.020744 6.8388e-4 0.03579 0.003921 0.045045 0.00962 0.0093 0.005015 0.017918 0.010395 0.025759 0.016094 0.00789 0.005745 0.012173 0.012538 0.012856 0.02038zm0.4623 0.1448c0 0.026443-0.00574 0.051656-0.017143 0.075591-0.011443 0.023981-0.026307 0.046321-0.044543 0.067066-0.018237 0.020744-0.039118 0.039482-0.062734 0.056306-0.023617 0.016778-0.047552 0.031094-0.071853 0.042902-0.0243 0.011808-0.048099 0.020927-0.071351 0.027355-0.023206 0.00643-0.043403 0.00962-0.060591 0.00962-0.023571 0-0.045045-0.00392-0.06433-0.011763-0.019331-0.00789-0.036291-0.018784-0.050972-0.032735-0.014635-0.013951-0.026079-0.030182-0.034285-0.048783-0.00825-0.018601-0.012355-0.038252-0.012355-0.058996 0-0.020015 0.00392-0.04199 0.011808-0.065971 0.00784-0.023936 0.017507-0.047188 0.028951-0.06971s0.023936-0.043449 0.037522-0.062734c0.013586-0.019331 0.026489-0.034331 0.038616-0.045045-0.011443-0.002872-0.019832-0.007705-0.025212-0.014498-0.00533-0.006793-0.00875-0.013404-0.010167-0.019832-0.00141-0.019331 0.024118-0.031823 0.076685-0.037522 0.052567-0.005745 0.098478-0.00465 0.13782 0.003191 0.039346 0.007887 0.071306 0.018784 0.095971 0.032735 0.024665 0.013906 0.043631 0.028951 0.056853 0.045045s0.023434 0.033054 0.030592 0.050926c0.00716 0.017872 0.010714 0.036838 0.010714 0.056853zm-0.36469 0.12118v0.01076c0 0.004286 0.00109 0.008389 0.00324 0.01231 0.00214 0.00392 0.0057 0.00716 0.010714 0.00967 0.00502 0.00251 0.012538 0.00301 0.022522 0.0016 0.015045 0 0.032917-0.00465 0.053662-0.013951 0.020699-0.009301 0.042355-0.023206 0.064877-0.041808s0.040759-0.038069 0.05471-0.058449c0.013905-0.02038 0.020881-0.041671 0.020881-0.063829 0-0.014316-0.00643-0.026808-0.019285-0.037522-0.012857-0.01076-0.028267-0.02006-0.046139-0.027902-0.017872-0.007887-0.036109-0.013769-0.054665-0.01769-0.018601-0.003966-0.033966-0.005562-0.046139-0.004833 0.00287 0.012127 0.0016 0.026808-0.00374 0.04395-0.00538 0.017188-0.012355 0.035607-0.020927 0.055257-0.00857 0.01965-0.016459 0.040212-0.023617 0.061686-0.00716 0.021428-0.012492 0.045045-0.016094 0.070758zm0.89346-0.12118c0 0.026443-0.00574 0.051656-0.017143 0.075591-0.011444 0.023981-0.026307 0.046321-0.044543 0.067066-0.018237 0.020744-0.039118 0.039482-0.062734 0.056306-0.023617 0.016778-0.047552 0.031094-0.071853 0.042902-0.0243 0.011808-0.048099 0.020927-0.071351 0.027355-0.023206 0.00643-0.043403 0.00962-0.060592 0.00962-0.023571 0-0.045045-0.00392-0.06433-0.011763-0.019331-0.00789-0.036291-0.018784-0.050972-0.032735-0.014635-0.013951-0.026079-0.030182-0.034285-0.048783-0.00825-0.018601-0.012355-0.038252-0.012355-0.058996 0-0.020015 0.00392-0.04199 0.011808-0.065971 0.00784-0.023936 0.017507-0.047188 0.028951-0.06971 0.011443-0.022522 0.023936-0.043449 0.037522-0.062734 0.013586-0.019331 0.026489-0.034331 0.038616-0.045045-0.011443-0.002872-0.019832-0.007705-0.025212-0.014498-0.00533-0.006793-0.00875-0.013404-0.010167-0.019832-0.00141-0.019331 0.024118-0.031823 0.076685-0.037522 0.052567-0.005745 0.098478-0.00465 0.13782 0.003191 0.039346 0.007887 0.071306 0.018784 0.095971 0.032735 0.024665 0.013906 0.043631 0.028951 0.056853 0.045045s0.023434 0.033054 0.030592 0.050926c0.00716 0.017872 0.010714 0.036838 0.010714 0.056853zm-0.36469 0.12118v0.01076c0 0.004286 0.00109 0.008389 0.00324 0.01231 0.00214 0.00392 0.0057 0.00716 0.010714 0.00967 0.00502 0.00251 0.012538 0.00301 0.022522 0.0016 0.015045 0 0.032917-0.00465 0.053662-0.013951 0.020699-0.009301 0.042355-0.023206 0.064877-0.041808s0.040759-0.038069 0.05471-0.058449c0.013905-0.02038 0.020881-0.041671 0.020881-0.063829 0-0.014316-0.00643-0.026808-0.019285-0.037522-0.012857-0.01076-0.028267-0.02006-0.046139-0.027902-0.017872-0.007887-0.036109-0.013769-0.054665-0.01769-0.018601-0.003966-0.033966-0.005562-0.046139-0.004833 0.00287 0.012127 0.0016 0.026808-0.00374 0.04395-0.00538 0.017188-0.012355 0.035607-0.020927 0.055257-0.00857 0.01965-0.016459 0.040212-0.023617 0.061686-0.00716 0.021428-0.012492 0.045045-0.016094 0.070758zm0.79156-0.12761c0.00784-0.005015 0.015547-0.005562 0.023069-0.001596 0.00748 0.003921 0.012127 0.009073 0.013906 0.015547 0.00182 0.006428 0.00251 0.011763 0.00214 0.016094-3.191e-4 0.004286-5.015e-4 0.006748-5.015e-4 0.007477-0.00643 0.0243-0.015911 0.049513-0.028449 0.075637-0.012492 0.026078-0.028951 0.052203-0.04933 0.078281-0.020379 0.026078-0.041808 0.048282-0.06433 0.066518-0.022522 0.018191-0.043084 0.027674-0.061686 0.028404-0.03506 0.00141-0.063281-0.00948-0.084755-0.032735-0.021428-0.023206-0.038069-0.050926-0.049832-0.083114-0.011808-0.032142-0.019696-0.064148-0.023617-0.095971-0.00392-0.031823-0.00588-0.055941-0.00588-0.0724 0.00141-0.063646 0.0057-0.12105 0.012857-0.17216 0.00716-0.051108 0.014635-0.097977 0.022522-0.14051 0.00784-0.042537 0.016276-0.0817 0.025212-0.11744 0.00894-0.035744 0.018738-0.065607 0.029498-0.089542 0.010714-0.023936 0.022887-0.037704 0.036473-0.041306 0.00926-0.002827 0.019285-0.003009 0.029999-5.0151e-4 0.010714 0.002462 0.020744 0.006246 0.030045 0.011261 0.0093 0.00497 0.016641 0.011079 0.021975 0.018191 0.00538 0.007158 0.00771 0.013586 0.00698 0.019331-7.295e-4 0.006428-0.00374 0.020015-0.00912 0.040759-0.00533 0.020744-0.011991 0.04664-0.019832 0.077734-0.00789 0.031139-0.015364 0.064376-0.022522 0.099755-0.00716 0.035425-0.014133 0.072035-0.020927 0.10997-0.00679 0.037887-0.012127 0.075226-0.016094 0.11206-0.00392 0.036838-0.00533 0.070439-0.00429 0.1008 0.00109 0.03041 0.00538 0.056488 0.012903 0.078327 0.00748 0.021793 0.019103 0.03661 0.034832 0.044498 0.00716 0.00429 0.015364 0.00356 0.024665-0.00214 0.0093-0.00574 0.019513-0.013951 0.030592-0.024665s0.02699-0.029133 0.047689-0.055257c0.020744-0.026078 0.034513-0.04395 0.041306-0.053616 0.00679-0.009665 0.011626-0.015547 0.014498-0.017689zm0.34431 0.17589c0-0.00643 0.00123-0.015547 0.00374-0.027355 0.00251-0.011808 0.00643-0.023434 0.011808-0.034878 0.00533-0.011398 0.011945-0.021246 0.019832-0.029452 0.00784-0.008252 0.016778-0.012355 0.026808-0.012355 0.0093 0.001413 0.015182 0.004468 0.01769 0.009118 0.00251 0.00465 0.0041 0.009483 0.00483 0.014498 7.294e-4 0.00497 5.471e-4 0.010349-5.471e-4 0.016048-0.00105 0.005745-0.0016 0.01003-0.0016 0.012902 0 0.013586 0.0052 0.024483 0.015547 0.032689 0.010395 0.00825 0.023252 0.014681 0.038616 0.019331s0.033784 0.00729 0.055257 0.00802c0.011398 0 0.025167-0.00123 0.041261-0.00374s0.031458-0.00593 0.046139-0.010213c0.014635-0.00429 0.02699-0.00962 0.036975-0.016094 0.01003-0.00643 0.014316-0.013222 0.012903-0.02038-0.00214-0.00497-0.00948-0.010896-0.022021-0.01769-0.012492-0.006793-0.027674-0.013222-0.045546-0.019285-0.017872-0.006064-0.036838-0.011991-0.056853-0.01769-0.020015-0.005745-0.039163-0.010942-0.0574-0.015547-0.018237-0.00465-0.04199-0.009848-0.071306-0.015592-0.0243-0.00497-0.053114-0.010714-0.086351-0.017142-0.033236-0.006428-0.068297-0.014316-0.10509-0.023617-0.036838-0.009255-0.073129-0.020334-0.10887-0.033236-0.035744-0.012857-0.068114-0.028039-0.097065-0.045592-0.028951-0.017507-0.052385-0.037704-0.070257-0.060592s-0.026808-0.048966-0.026808-0.078281c0-0.043631 0.012675-0.083296 0.038069-0.11904 0.025395-0.03579 0.058266-0.06743 0.098661-0.094922 0.040394-0.027538 0.084938-0.050972 0.13354-0.070257 0.048647-0.019331 0.096199-0.035425 0.14266-0.048282s0.088859-0.021975 0.12711-0.027355c0.038252-0.005334 0.06702-0.008024 0.086305-0.008024 0.032917 7.2947e-4 0.062233 0.005197 0.087947 0.013404 0.025759 0.008207 0.048282 0.019832 0.067613 0.034832 0.019285 0.015045 0.035197 0.033647 0.047689 0.055804 0.012538 0.022158 0.018784 0.048601 0.018784 0.079375 0 0.007842-0.00196 0.020197-0.00588 0.036975-0.00397 0.016823-0.010213 0.033236-0.018784 0.04933-0.00857 0.016094-0.019285 0.030227-0.032188 0.0424-0.012857 0.012127-0.026808 0.018237-0.041808 0.018237-0.010714 0-0.020562-0.002872-0.029498-0.008617-0.00894-0.005699-0.017325-0.012857-0.025212-0.021428-0.00784-0.008571-0.014133-0.017507-0.018784-0.026808-0.00465-0.009301-0.00698-0.017188-0.00698-0.023617 0-0.002872 0.00164-0.008754 0.00483-0.01769 0.00324-0.008936 0.00789-0.020562 0.013951-0.034878 0.00606-0.01427 0.00948-0.026808 0.010213-0.037522 0-0.015-0.00182-0.025896-0.00538-0.032689-0.00356-0.006793-0.01003-0.012355-0.019285-0.016641-0.0093-0.004286-0.026124-0.006064-0.050425-0.00538-0.051473 0.004286-0.097612 0.011808-0.13837 0.022522-0.040759 0.01076-0.087582 0.028449-0.14051 0.053114-0.052886 0.024665-0.09474 0.053251-0.12547 0.085804-0.030729 0.032507-0.046139 0.06237-0.046139 0.089542 0 0.017872 0.013951 0.037887 0.041853 0.06009 0.027857 0.022158 0.074178 0.045182 0.13887 0.069163 0.06474 0.023936 0.12032 0.043267 0.16678 0.057902 0.046504 0.014681 0.091913 0.02968 0.13623 0.045045s0.083843 0.031458 0.11854 0.048282c0.03465 0.016778 0.062734 0.034513 0.084163 0.053069 0.021474 0.018602 0.032188 0.038981 0.032188 0.061139 0 0.023617-0.00912 0.045227-0.027355 0.064923-0.018237 0.01965-0.042172 0.036109-0.071853 0.04933-0.02968 0.013222-0.063829 0.02307-0.10244 0.029498-0.038616 0.00643-0.077916 0.00857-0.11795 0.00643-0.05006-0.0036-0.088129-0.018054-0.11425-0.043449-0.026078-0.025395-0.039118-0.059862-0.039118-0.10349z"/><path class="fil2" d="m0.58043 1.0745c0-0.00688 0.001322-0.016687 0.004012-0.029361s0.00693-0.025121 0.012674-0.037431c0.005745-0.012264 0.012857-0.022842 0.021291-0.031641 0.008434-0.008845 0.018054-0.013267 0.028814-0.013267 0.009985 0.00155 0.016276 0.004833 0.018966 0.009802 0.00269 0.00497 0.004422 0.010167 0.005197 0.015547 7.7506e-4 0.00538 5.9269e-4 0.011124-5.9269e-4 0.017279-0.00114 0.00615-0.001687 0.01076-0.001687 0.013814 0 0.014589 0.005562 0.026307 0.016687 0.035106 0.011124 0.00884 0.024939 0.015775 0.041443 0.020744 0.016504 0.00497 0.036291 0.00789 0.059315 0.00862 0.012264 0 0.027036-0.00132 0.044315-0.00401s0.033784-0.00634 0.049513-0.010942c0.015775-0.0046 0.028996-0.010349 0.039756-0.017279 0.01076-0.00688 0.015364-0.014179 0.013814-0.021884-0.002325-0.00538-0.010167-0.011717-0.023617-0.018966-0.01345-0.00729-0.029726-0.014225-0.04892-0.020744-0.019194-0.00652-0.039574-0.012857-0.061048-0.019012-0.021519-0.006155-0.042036-0.011717-0.061595-0.016687-0.019604-0.005015-0.045136-0.010577-0.076594-0.016687-0.026124-0.00538-0.05699-0.011535-0.092688-0.018465-0.035698-0.006884-0.073312-0.015319-0.11288-0.025304-0.039528-0.009985-0.078464-0.021884-0.11685-0.035698-0.038388-0.013814-0.073129-0.030136-0.10422-0.048966-0.031094-0.018784-0.05626-0.040486-0.075454-0.06506-0.019149-0.024574-0.028768-0.052567-0.028768-0.084071 0-0.046823 0.013632-0.089406 0.040896-0.12779 0.027218-0.038388 0.062552-0.072354 0.10591-0.10194 0.043403-0.029544 0.091184-0.054665 0.14339-0.075409 0.052203-0.020744 0.10326-0.037978 0.15314-0.051838 0.049923-0.013814 0.095424-0.023571 0.13646-0.029361 0.041078-0.005745 0.07199-0.008617 0.092734-0.008617 0.035288 7.7506e-4 0.066792 0.005562 0.094421 0.014407 0.027629 0.008799 0.051792 0.021291 0.072537 0.037431 0.020744 0.016094 0.037796 0.036063 0.051245 0.059862 0.01345 0.023799 0.020152 0.052203 0.020152 0.085211 0 0.008434-0.0021 0.021702-0.00634 0.03971-0.00419 0.018054-0.010942 0.035698-0.020152 0.052978s-0.020699 0.032461-0.034559 0.045501c-0.013814 0.013039-0.028768 0.019559-0.044908 0.019559-0.011489 0-0.022066-0.003055-0.031641-0.00921-0.00962-0.006109-0.018647-0.013814-0.027082-0.023024-0.008434-0.00921-0.015136-0.018784-0.020152-0.028768-0.00497-0.009985-0.007477-0.018419-0.007477-0.025349 0-0.003055 0.001732-0.009392 0.005197-0.019012 0.003419-0.009574 0.008434-0.022066 0.014954-0.037431 0.00652-0.015319 0.010167-0.028768 0.010942-0.040303 0-0.016094-0.001915-0.027811-0.005745-0.035106-0.00383-0.007295-0.01076-0.013222-0.020744-0.017826-0.009985-0.00465-0.028039-0.006565-0.054118-0.00579-0.055257 0.004605-0.10482 0.012674-0.14854 0.024209-0.043768 0.011489-0.094056 0.030501-0.15086 0.05699-0.056807 0.026489-0.10172 0.057172-0.13472 0.092141-0.033008 0.034923-0.049513 0.066974-0.049513 0.096153 0 0.019194 0.014954 0.040668 0.044908 0.064467 0.029908 0.023799 0.079649 0.048555 0.14913 0.074269 0.069436 0.025714 0.12916 0.046458 0.17904 0.062187 0.049923 0.015729 0.098661 0.031869 0.14626 0.048373 0.047598 0.016504 0.089998 0.033784 0.12725 0.051838 0.037248 0.018009 0.067385 0.037021 0.090409 0.05699 0.023024 0.019969 0.034513 0.041853 0.034513 0.065652 0 0.025303-0.00976 0.048555-0.029361 0.069664-0.019559 0.021109-0.045273 0.038753-0.077141 0.052978-0.031869 0.014179-0.068524 0.024756-0.10997 0.031641-0.041443 0.00693-0.083661 0.00921-0.12665 0.00693-0.053753-0.00388-0.094649-0.019422-0.12264-0.04664-0.028039-0.027264-0.042036-0.06433-0.042036-0.11115z"/>
</svg>
